<svg width="1728" height="514" viewBox="0 0 1728 514" fill="none" xmlns="http://www.w3.org/2000/svg">
<g clip-path="url(#clip0_893_2)">
<g filter="url(#filter0_f_893_2)">
<path d="M1231.83 -9.45464C1231.83 -48.1092 1263.19 -79.4451 1301.87 -79.4451H1409.25C1447.93 -79.4451 1479.29 -48.1092 1479.29 -9.45464V97.8646C1479.29 136.52 1452.3 131.748 1413.62 131.748L1234.9 206.574C1104.76 251.425 1090.26 288.44 1231.83 97.8646V-9.45464Z" fill="url(#paint0_linear_893_2)"/>
</g>
<g style="mix-blend-mode:overlay" filter="url(#filter1_f_893_2)">
<path d="M1274.29 11.7401C1274.29 -6.42673 1289 -21.1538 1307.13 -21.1538H1357.5C1375.65 -21.1538 1390.36 -6.42673 1390.36 11.7401V62.1774C1390.36 80.3441 1377.7 78.1017 1359.56 78.1017L1256.86 131.652C752.168 465.047 1207.89 151.743 1274.29 62.1774V11.7401Z" fill="url(#paint1_linear_893_2)"/>
</g>
<g style="mix-blend-mode:overlay" filter="url(#filter2_f_893_2)">
<path d="M1464.71 -119.979C1464.71 -152.023 1490.7 -178 1522.75 -178H1611.74C1643.79 -178 1669.78 -152.023 1669.78 -119.979V-31.0132C1669.78 1.03102 1647.41 -2.92436 1615.36 -2.92436L1433.91 91.5327C542.275 679.604 1347.4 126.971 1464.71 -31.0132V-119.979Z" fill="url(#paint2_linear_893_2)"/>
</g>
<g style="mix-blend-mode:overlay" filter="url(#filter3_f_893_2)">
<path d="M1477.45 -133.097C1477.45 -157.897 1497.56 -178 1522.36 -178H1591.22C1616.02 -178 1636.13 -157.897 1636.13 -133.097V-64.2465C1636.13 -39.4473 1618.82 -42.5084 1594.02 -42.5084L1453.62 30.5923C763.691 485.703 1386.68 58.0177 1477.45 -64.2465V-133.097Z" fill="url(#paint3_linear_893_2)"/>
</g>
</g>
<path d="M1184.59 103.078L1526.78 308.236L1184.59 513.394L843 308.236L1184.59 103.078Z" stroke="white" stroke-width="0.566344" stroke-miterlimit="10"/>
<path d="M1422.57 283.458L1191.87 421.901V416.606L1422.57 278.163V283.458Z" fill="#121315"/>
<path d="M1191.87 416.578V421.901L1001.15 307.358V301.666L1191.87 416.578Z" fill="#121315"/>
<path opacity="0.2" d="M1422.57 278.163L1191.87 416.606L1001.15 302.063V301.666L1230.69 163.705L1422.57 278.163Z" fill="white"/>
<g opacity="0.1">
<mask id="mask0_893_2" style="mask-type:luminance" maskUnits="userSpaceOnUse" x="1001" y="163" width="422" height="254">
<path d="M1422.57 278.163L1191.87 416.606L1001.15 302.063V301.666L1230.69 163.705L1422.57 278.163Z" fill="white"/>
</mask>
<g mask="url(#mask0_893_2)">
<path d="M981.188 349.721L1351.66 127.062" stroke="#121315" stroke-width="0.566344" stroke-miterlimit="10" stroke-linecap="round" stroke-linejoin="round"/>
<path d="M1002.09 359.264L1372.56 136.605" stroke="#121315" stroke-width="0.566344" stroke-miterlimit="10" stroke-linecap="round" stroke-linejoin="round"/>
<path d="M1022.98 368.807L1393.46 146.148" stroke="#121315" stroke-width="0.566344" stroke-miterlimit="10" stroke-linecap="round" stroke-linejoin="round"/>
<path d="M1043.88 378.321L1414.36 155.663" stroke="#121315" stroke-width="0.566344" stroke-miterlimit="10" stroke-linecap="round" stroke-linejoin="round"/>
<path d="M1064.78 387.864L1435.25 165.206" stroke="#121315" stroke-width="0.566344" stroke-miterlimit="10" stroke-linecap="round" stroke-linejoin="round"/>
<path d="M1085.68 397.407L1456.15 174.749" stroke="#121315" stroke-width="0.566344" stroke-miterlimit="10" stroke-linecap="round" stroke-linejoin="round"/>
<path d="M1106.58 406.922L1477.05 184.263" stroke="#121315" stroke-width="0.566344" stroke-miterlimit="10" stroke-linecap="round" stroke-linejoin="round"/>
<path d="M1127.47 416.464L1497.95 193.806" stroke="#121315" stroke-width="0.566344" stroke-miterlimit="10" stroke-linecap="round" stroke-linejoin="round"/>
<path d="M1148.37 426.007L1518.88 203.349" stroke="#121315" stroke-width="0.566344" stroke-miterlimit="10" stroke-linecap="round" stroke-linejoin="round"/>
<path d="M1169.27 435.522L1539.77 212.864" stroke="#121315" stroke-width="0.566344" stroke-miterlimit="10" stroke-linecap="round" stroke-linejoin="round"/>
<path d="M960.29 340.206L1330.76 117.548" stroke="#121315" stroke-width="0.566344" stroke-miterlimit="10" stroke-linecap="round" stroke-linejoin="round"/>
<path d="M981.188 349.721L1351.66 127.062" stroke="#121315" stroke-width="0.566344" stroke-miterlimit="10" stroke-linecap="round" stroke-linejoin="round"/>
<path d="M1002.09 359.264L1372.56 136.605" stroke="#121315" stroke-width="0.566344" stroke-miterlimit="10" stroke-linecap="round" stroke-linejoin="round"/>
<path d="M1022.98 368.807L1393.46 146.148" stroke="#121315" stroke-width="0.566344" stroke-miterlimit="10" stroke-linecap="round" stroke-linejoin="round"/>
<path d="M1043.88 378.321L1414.36 155.663" stroke="#121315" stroke-width="0.566344" stroke-miterlimit="10" stroke-linecap="round" stroke-linejoin="round"/>
<path d="M1064.78 387.864L1435.25 165.206" stroke="#121315" stroke-width="0.566344" stroke-miterlimit="10" stroke-linecap="round" stroke-linejoin="round"/>
<path d="M1085.68 397.407L1456.15 174.749" stroke="#121315" stroke-width="0.566344" stroke-miterlimit="10" stroke-linecap="round" stroke-linejoin="round"/>
<path d="M1106.58 406.922L1477.05 184.263" stroke="#121315" stroke-width="0.566344" stroke-miterlimit="10" stroke-linecap="round" stroke-linejoin="round"/>
<path d="M1127.47 416.464L1497.95 193.806" stroke="#121315" stroke-width="0.566344" stroke-miterlimit="10" stroke-linecap="round" stroke-linejoin="round"/>
<path d="M1148.37 426.007L1518.88 203.349" stroke="#121315" stroke-width="0.566344" stroke-miterlimit="10" stroke-linecap="round" stroke-linejoin="round"/>
<path d="M1169.27 435.522L1539.77 212.864" stroke="#121315" stroke-width="0.566344" stroke-miterlimit="10" stroke-linecap="round" stroke-linejoin="round"/>
<path d="M1136.68 101.605L1511.4 325.113" stroke="#121315" stroke-width="0.566344" stroke-miterlimit="10" stroke-linecap="round" stroke-linejoin="round"/>
<path d="M1119.29 113.215L1494.01 336.723" stroke="#121315" stroke-width="0.566344" stroke-miterlimit="10" stroke-linecap="round" stroke-linejoin="round"/>
<path d="M1101.88 124.825L1476.63 348.305" stroke="#121315" stroke-width="0.566344" stroke-miterlimit="10" stroke-linecap="round" stroke-linejoin="round"/>
<path d="M1084.49 136.407L1459.21 359.915" stroke="#121315" stroke-width="0.566344" stroke-miterlimit="10" stroke-linecap="round" stroke-linejoin="round"/>
<path d="M1067.1 148.017L1441.82 371.497" stroke="#121315" stroke-width="0.566344" stroke-miterlimit="10" stroke-linecap="round" stroke-linejoin="round"/>
<path d="M1049.69 159.599L1424.44 383.107" stroke="#121315" stroke-width="0.566344" stroke-miterlimit="10" stroke-linecap="round" stroke-linejoin="round"/>
<path d="M1032.3 171.209L1407.02 394.717" stroke="#121315" stroke-width="0.566344" stroke-miterlimit="10" stroke-linecap="round" stroke-linejoin="round"/>
<path d="M1014.91 182.791L1389.64 406.298" stroke="#121315" stroke-width="0.566344" stroke-miterlimit="10" stroke-linecap="round" stroke-linejoin="round"/>
<path d="M997.527 194.401L1372.25 417.908" stroke="#121315" stroke-width="0.566344" stroke-miterlimit="10" stroke-linecap="round" stroke-linejoin="round"/>
<path d="M980.112 206.011L1354.86 429.49" stroke="#121315" stroke-width="0.566344" stroke-miterlimit="10" stroke-linecap="round" stroke-linejoin="round"/>
<path d="M962.725 217.593L1337.45 441.1" stroke="#121315" stroke-width="0.566344" stroke-miterlimit="10" stroke-linecap="round" stroke-linejoin="round"/>
<path d="M945.338 229.203L1320.06 452.71" stroke="#121315" stroke-width="0.566344" stroke-miterlimit="10" stroke-linecap="round" stroke-linejoin="round"/>
<path d="M927.923 240.784L1302.67 464.292" stroke="#121315" stroke-width="0.566344" stroke-miterlimit="10" stroke-linecap="round" stroke-linejoin="round"/>
<path d="M910.536 252.394L1285.26 475.902" stroke="#121315" stroke-width="0.566344" stroke-miterlimit="10" stroke-linecap="round" stroke-linejoin="round"/>
<path d="M893.15 263.976L1267.87 487.484" stroke="#121315" stroke-width="0.566344" stroke-miterlimit="10" stroke-linecap="round" stroke-linejoin="round"/>
<path d="M875.763 275.586L1250.48 499.094" stroke="#121315" stroke-width="0.566344" stroke-miterlimit="10" stroke-linecap="round" stroke-linejoin="round"/>
</g>
</g>
<path d="M1348.46 298.834L1371.14 285.412L1329.89 260.804L1348.46 298.834Z" fill="#121315"/>
<path d="M1115.58 299.656L1247.71 219.631L1199.34 215.469L1082.85 291.727L1115.58 299.656Z" fill="#121315"/>
<path d="M1170.94 344.114C1183.83 343.066 1197.14 334.769 1197.45 326.755C1197.45 326.755 1199.34 318.883 1187.2 314.267C1174.28 309.369 1170.94 344.114 1170.94 344.114Z" fill="#121315"/>
<path d="M1198.1 143.203L1220.75 129.469L1244.06 143.203L1221.09 156.909L1198.1 143.203Z" fill="#FFFEFD"/>
<path d="M1221.09 156.909V236.169L1244.06 222.435V143.203L1221.09 156.909Z" fill="#808996"/>
<path d="M1221.09 156.909L1198.1 143.203V222.803L1221.09 236.169V156.909Z" fill="#313740"/>
<path d="M1198.1 143.203L1220.75 129.469L1244.06 143.203L1221.09 156.909L1198.1 143.203Z" stroke="#121315" stroke-width="0.566344" stroke-miterlimit="10" stroke-linecap="round" stroke-linejoin="round"/>
<path d="M1221.09 156.909V236.169L1244.06 222.435V143.203L1221.09 156.909Z" stroke="#121315" stroke-width="0.566344" stroke-miterlimit="10" stroke-linecap="round" stroke-linejoin="round"/>
<path d="M1221.09 156.909L1198.1 143.203V222.803L1221.09 236.169V156.909Z" stroke="#121315" stroke-width="0.566344" stroke-miterlimit="10" stroke-linecap="round" stroke-linejoin="round"/>
<path d="M1155.45 210.853L1178.08 197.091L1201.38 210.853L1178.42 224.559L1155.45 210.853Z" fill="#FFFEFD"/>
<path d="M1178.42 224.559V261.767L1201.38 248.034V210.853L1178.42 224.559Z" fill="#808996"/>
<path d="M1178.42 224.559L1155.45 210.853V248.402L1178.42 261.767V224.559Z" fill="#313740"/>
<path d="M1155.45 210.853L1178.08 197.091L1201.38 210.853L1178.42 224.559L1155.45 210.853Z" stroke="#121315" stroke-width="0.566344" stroke-miterlimit="10" stroke-linecap="round" stroke-linejoin="round"/>
<path d="M1178.42 224.559V261.767L1201.38 248.034V210.853L1178.42 224.559Z" stroke="#121315" stroke-width="0.566344" stroke-miterlimit="10" stroke-linecap="round" stroke-linejoin="round"/>
<path d="M1178.42 224.559L1155.45 210.853V248.402L1178.42 261.767V224.559Z" stroke="#121315" stroke-width="0.566344" stroke-miterlimit="10" stroke-linecap="round" stroke-linejoin="round"/>
<path d="M1111.39 192.787L1134.04 179.053L1157.35 192.787L1134.38 206.492L1111.39 192.787Z" fill="#FFFEFD"/>
<path d="M1134.38 206.492V288.046L1157.35 274.34V192.787L1134.38 206.492Z" fill="#808996"/>
<path d="M1134.38 206.492L1111.39 192.787V274.708L1134.38 288.046V206.492Z" fill="#313740"/>
<path d="M1111.39 192.787L1134.04 179.053L1157.35 192.787L1134.38 206.492L1111.39 192.787Z" stroke="#121315" stroke-width="0.566344" stroke-miterlimit="10" stroke-linecap="round" stroke-linejoin="round"/>
<path d="M1134.38 206.492V288.046L1157.35 274.34V192.787L1134.38 206.492Z" stroke="#121315" stroke-width="0.566344" stroke-miterlimit="10" stroke-linecap="round" stroke-linejoin="round"/>
<path d="M1134.38 206.492L1111.39 192.787V274.708L1134.38 288.046V206.492Z" stroke="#121315" stroke-width="0.566344" stroke-miterlimit="10" stroke-linecap="round" stroke-linejoin="round"/>
<path d="M1069.62 236.197L1092.28 222.435L1115.58 236.197L1092.62 249.903L1069.62 236.197Z" fill="#FFFEFD"/>
<path d="M1092.62 249.903V313.361L1115.58 299.656V236.197L1092.62 249.903Z" fill="#808996"/>
<path d="M1092.62 249.903L1069.62 236.197V300.024L1092.62 313.361V249.903Z" fill="#313740"/>
<path d="M1069.62 236.197L1092.28 222.435L1115.58 236.197L1092.62 249.903L1069.62 236.197Z" stroke="#121315" stroke-width="0.566344" stroke-miterlimit="10" stroke-linecap="round" stroke-linejoin="round"/>
<path d="M1092.62 249.903V313.361L1115.58 299.656V236.197L1092.62 249.903Z" stroke="#121315" stroke-width="0.566344" stroke-miterlimit="10" stroke-linecap="round" stroke-linejoin="round"/>
<path d="M1092.62 249.903L1069.62 236.197V300.024L1092.62 313.361V249.903Z" stroke="#121315" stroke-width="0.566344" stroke-miterlimit="10" stroke-linecap="round" stroke-linejoin="round"/>
<path d="M1084.38 227.419L1130.84 152.859L1138.91 157.447L1092.25 231.666L1084.38 227.419Z" fill="#477CFC"/>
<path d="M1236.86 124.882L1242.13 130.744L1216.99 116.16L1211.32 110.072L1236.86 124.882Z" fill="#121315"/>
<path d="M1236.86 124.882L1242.13 130.744L1216.99 116.16L1211.32 110.072L1236.86 124.882Z" stroke="#121315" stroke-width="0.566344" stroke-miterlimit="10" stroke-linecap="round" stroke-linejoin="round"/>
<path d="M1236.86 124.882L1227.07 119.19L1180.94 198.309L1174.23 192.135L1219.28 114.688L1211.32 110.072L1235.19 99L1236.86 124.882Z" fill="#477CFC"/>
<path d="M1235.19 99L1240.52 106.051L1242.13 130.744L1236.86 124.882L1235.19 99Z" fill="#3436BC"/>
<path d="M1084.38 227.418L1089.53 231.241L1098.11 235.999L1092.25 231.666L1084.38 227.418Z" fill="#121315"/>
<path d="M1084.38 227.418L1089.53 231.241L1098.11 235.999L1092.25 231.666L1084.38 227.418Z" stroke="#121315" stroke-width="0.566344" stroke-miterlimit="10" stroke-linecap="round" stroke-linejoin="round"/>
<path d="M1227.07 119.19L1231.43 124.712L1182.33 209.834L1139.68 169.567L1098.11 235.999L1092.25 231.666L1138.91 157.447L1180.94 198.309L1227.07 119.19Z" fill="#0047C4"/>
<path d="M1182.33 209.833L1174.68 205.812L1138.24 171.888L1139.68 169.566L1182.33 209.833Z" fill="#121315"/>
<path d="M1084.38 227.419L1130.84 152.859L1138.91 157.447L1092.25 231.666L1084.38 227.419Z" stroke="#121315" stroke-width="0.566344" stroke-miterlimit="10" stroke-linecap="round" stroke-linejoin="round"/>
<path d="M1236.86 124.882L1227.07 119.19L1180.94 198.309L1174.37 191.909L1219.28 114.688L1211.32 110.072L1235.19 99L1236.86 124.882Z" stroke="#121315" stroke-width="0.566344" stroke-miterlimit="10" stroke-linecap="round" stroke-linejoin="round"/>
<path d="M1235.19 99L1240.52 106.051L1242.13 130.744L1236.86 124.882L1235.19 99Z" stroke="#121315" stroke-width="0.566344" stroke-miterlimit="10" stroke-linecap="round" stroke-linejoin="round"/>
<path d="M1227.07 119.19L1231.43 124.712L1182.33 209.834L1139.68 169.567L1098.11 235.999L1092.25 231.666L1138.91 157.447L1180.94 198.309L1227.07 119.19Z" stroke="#121315" stroke-width="0.566344" stroke-miterlimit="10" stroke-linecap="round" stroke-linejoin="round"/>
<path d="M1182.33 209.833L1174.68 205.812L1138.24 171.888L1139.68 169.566L1182.33 209.833Z" stroke="#121315" stroke-width="0.566344" stroke-miterlimit="10" stroke-linecap="round" stroke-linejoin="round"/>
<path d="M1286.87 166.593V172.03L1282.37 169.312L1286.76 166.508L1286.87 166.593Z" fill="#121315"/>
<path d="M1295.37 171.69L1291.01 174.494L1286.87 172.03V166.593L1295.37 171.69Z" fill="#313740"/>
<path d="M1286.87 165.545V166.593L1286.76 166.508L1282.37 169.311L1286.87 172.03L1291.01 174.494L1290.89 174.805V176.419L1278.92 169.198L1286.39 164.526L1287.18 165.007L1286.87 165.545Z" fill="white"/>
<path d="M1298.34 171.634L1290.89 176.419V174.805L1291.01 174.494L1295.37 171.69L1286.87 166.593V165.545L1287.18 165.007L1298.34 171.634Z" fill="white"/>
<path d="M1278.92 172.681V169.198L1290.89 176.419V179.874L1289.34 178.939L1280.59 173.672L1278.92 172.681Z" fill="#313740"/>
<path d="M1298.34 175.088L1296.61 176.193L1290.89 179.874V176.419L1298.34 171.634V175.088Z" fill="#808996"/>
<path d="M1296.61 176.193V192.362L1289.28 187.944V178.996L1289.34 178.939L1290.89 179.874L1296.61 176.193Z" fill="#808996"/>
<path d="M1289.34 178.939L1289.28 178.996V187.944L1280.56 182.649V173.701L1280.59 173.672L1289.34 178.939Z" fill="#313740"/>
<path d="M1286.87 166.593V172.03L1282.37 169.312L1286.76 166.508L1286.87 166.593Z" stroke="#121315" stroke-width="0.566344" stroke-miterlimit="10" stroke-linecap="round" stroke-linejoin="round"/>
<path d="M1295.37 171.69L1291.01 174.494L1286.87 172.03V166.593L1295.37 171.69Z" stroke="#121315" stroke-width="0.566344" stroke-miterlimit="10" stroke-linecap="round" stroke-linejoin="round"/>
<path d="M1287.18 165.007L1286.39 164.526L1278.94 169.227L1290.92 176.419L1298.37 171.634L1287.18 165.007ZM1286.87 172.03L1282.37 169.311L1286.73 166.508L1286.87 166.593L1295.37 171.69L1291.01 174.494L1286.87 172.03Z" stroke="#121315" stroke-width="0.566344" stroke-miterlimit="10" stroke-linecap="round" stroke-linejoin="round"/>
<path d="M1278.92 172.681V169.198L1290.89 176.419V179.874L1289.34 178.939L1280.59 173.672L1278.92 172.681Z" stroke="#121315" stroke-width="0.566344" stroke-miterlimit="10" stroke-linecap="round" stroke-linejoin="round"/>
<path d="M1298.34 175.088L1296.61 176.193L1290.89 179.874V176.419L1298.34 171.634V175.088Z" stroke="#121315" stroke-width="0.566344" stroke-miterlimit="10" stroke-linecap="round" stroke-linejoin="round"/>
<path d="M1296.61 176.193V192.362L1289.28 187.944V178.996L1289.34 178.939L1290.89 179.874L1296.61 176.193Z" stroke="#121315" stroke-width="0.566344" stroke-miterlimit="10" stroke-linecap="round" stroke-linejoin="round"/>
<path d="M1289.34 178.939L1289.28 178.996V187.944L1280.56 182.649V173.701L1280.59 173.672L1289.34 178.939Z" stroke="#121315" stroke-width="0.566344" stroke-miterlimit="10" stroke-linecap="round" stroke-linejoin="round"/>
<path d="M1348.46 292.35V298.835L1275.21 343.123V336.497L1348.46 292.35Z" fill="#121315"/>
<path d="M1348.46 292.35V298.835L1275.21 343.123V336.497L1348.46 292.35Z" stroke="#121315" stroke-width="0.566344" stroke-miterlimit="10" stroke-linecap="round" stroke-linejoin="round"/>
<path d="M1340.36 241.181C1341.16 241.662 1341.98 242.143 1342.77 242.625L1342.49 242.795L1342.46 242.823L1310.8 261.909L1312.27 258.313L1340.08 241.379L1340.11 241.351L1340.36 241.181Z" fill="#121315"/>
<path d="M1299.39 305.518V308.236L1313.89 299.514V279.636L1310.83 281.476L1305.59 284.619L1304.37 285.356L1299.42 288.329V288.357L1299.36 288.386V303.677V305.518H1299.39ZM1324.93 289.915V292.662L1339.43 283.94V264.061L1336.37 265.902L1331.13 269.045L1329.89 269.781L1324.93 272.755V272.783L1324.87 272.811V288.357V289.915H1324.93ZM1343.37 243.39V288.98V292.916L1290.84 324.009V323.895V299.09V292.803V290.821L1298.26 286.205V286.092C1298.28 286.12 1298.31 286.12 1298.34 286.149L1300.52 284.846C1300.66 284.818 1300.83 284.761 1301 284.676C1301.09 284.648 1301.14 284.591 1301.2 284.534C1301.57 284.251 1301.91 283.798 1302.11 283.289L1303.64 279.494L1310.77 261.909L1342.43 242.823L1342.46 242.795L1342.74 242.625C1342.94 242.738 1343.14 242.852 1343.34 242.993V243.333V243.39H1343.37Z" fill="#808996"/>
<path d="M1299.39 305.518V308.236L1313.89 299.514V279.636L1310.83 281.476L1305.59 284.619L1304.37 285.356L1299.42 288.329V288.357L1299.36 288.386V303.677V305.518H1299.39ZM1324.93 289.915V292.662L1339.43 283.94V264.061L1336.37 265.902L1331.13 269.045L1329.89 269.781L1324.93 272.755V272.783L1324.87 272.811V288.357V289.915H1324.93ZM1343.37 243.39V288.98V292.916L1290.84 324.009V323.895V299.09V292.803V290.821L1298.26 286.205V286.092C1298.28 286.12 1298.31 286.12 1298.34 286.149L1300.52 284.846C1300.66 284.818 1300.83 284.761 1301 284.676C1301.09 284.648 1301.14 284.591 1301.2 284.534C1301.57 284.251 1301.91 283.798 1302.11 283.289L1303.64 279.494L1310.77 261.909L1342.43 242.823L1342.46 242.795L1342.74 242.625C1342.94 242.738 1343.14 242.852 1343.34 242.993V243.333V243.39H1343.37Z" stroke="#121315" stroke-width="0.566344" stroke-miterlimit="10" stroke-linecap="round" stroke-linejoin="round"/>
<path d="M1340.39 241.181L1337.31 239.312L1327.2 221.529L1312.24 258.313L1340.39 241.181Z" fill="#808996"/>
<path d="M1340.39 241.181L1337.31 239.312L1327.2 221.529L1312.24 258.313L1340.39 241.181Z" stroke="#121315" stroke-width="0.566344" stroke-miterlimit="10" stroke-linecap="round" stroke-linejoin="round"/>
<path d="M1357.01 250.978C1356.67 251.205 1356.33 251.233 1356.08 251.063C1355.4 250.667 1354.75 250.27 1354.07 249.846C1353.84 249.732 1353.64 249.591 1353.45 249.478C1350.08 247.439 1346.74 245.428 1343.37 243.389V243.333L1353.47 249.449L1354.07 249.817L1355.91 250.922L1354.32 248.94L1354.1 248.628L1328.9 217.394L1327.22 221.5L1324.76 227.56L1323.49 230.703L1323.4 230.902L1323.29 231.185V231.213L1323.15 231.581L1317.26 246.08L1316.49 247.948L1315.78 249.704L1315.08 251.46L1314.31 253.357L1313.04 256.444L1312.27 258.341L1310.8 261.937L1303.66 279.522L1302.14 283.317C1301.94 283.855 1301.6 284.279 1301.23 284.563C1301.17 284.619 1301.09 284.676 1301.03 284.704C1300.86 284.789 1300.72 284.874 1300.55 284.874L1298.37 286.177C1298.34 286.148 1298.31 286.148 1298.28 286.12V286.233L1290.87 290.849L1276.93 299.486L1276.88 299.458V297.051L1290.87 288.385L1298.23 283.826V283.713C1298.26 283.741 1298.28 283.741 1298.31 283.77L1298.62 283.572L1299.64 282.949L1299.76 282.864L1299.9 282.949L1299.98 282.722L1307.63 263.891L1309.07 260.295L1309.84 258.426L1311.08 255.339L1311.85 253.442L1313.26 249.931L1314.03 248.062L1321.45 229.797L1327.25 215.525L1327.39 215.129C1327.39 214.619 1327.62 214.024 1327.99 213.515C1328.22 213.203 1328.47 212.977 1328.7 212.835C1329.18 212.552 1329.43 212.467 1329.66 212.524C1329.72 212.524 1329.74 212.552 1329.8 212.552C1329.83 212.552 1329.86 212.58 1329.89 212.58C1330.14 212.722 1330.25 213.033 1330.28 213.401L1358.12 247.92C1358.52 248.402 1358.35 249.506 1357.72 250.355C1357.52 250.582 1357.27 250.837 1357.01 250.978Z" fill="#808996"/>
<path d="M1357.01 250.978C1356.67 251.205 1356.33 251.233 1356.08 251.063C1355.4 250.667 1354.75 250.27 1354.07 249.846C1353.84 249.732 1353.64 249.591 1353.45 249.478C1350.08 247.439 1346.74 245.428 1343.37 243.389V243.333L1353.47 249.449L1354.07 249.817L1355.91 250.922L1354.32 248.94L1354.1 248.628L1328.9 217.394L1327.22 221.5L1324.76 227.56L1323.49 230.703L1323.4 230.902L1323.29 231.185V231.213L1323.15 231.581L1317.26 246.08L1316.49 247.948L1315.78 249.704L1315.08 251.46L1314.31 253.357L1313.04 256.444L1312.27 258.341L1310.8 261.937L1303.66 279.522L1302.14 283.317C1301.94 283.855 1301.6 284.279 1301.23 284.563C1301.17 284.619 1301.09 284.676 1301.03 284.704C1300.86 284.789 1300.72 284.874 1300.55 284.874L1298.37 286.177C1298.34 286.148 1298.31 286.148 1298.28 286.12V286.233L1290.87 290.849L1276.93 299.486L1276.88 299.458V297.051L1290.87 288.385L1298.23 283.826V283.713C1298.26 283.741 1298.28 283.741 1298.31 283.77L1298.62 283.572L1299.64 282.949L1299.76 282.864L1299.9 282.949L1299.98 282.722L1307.63 263.891L1309.07 260.295L1309.84 258.426L1311.08 255.339L1311.85 253.442L1313.26 249.931L1314.03 248.062L1321.45 229.797L1327.25 215.525L1327.39 215.129C1327.39 214.619 1327.62 214.024 1327.99 213.515C1328.22 213.203 1328.47 212.977 1328.7 212.835C1329.18 212.552 1329.43 212.467 1329.66 212.524C1329.72 212.524 1329.74 212.552 1329.8 212.552C1329.83 212.552 1329.86 212.58 1329.89 212.58C1330.14 212.722 1330.25 213.033 1330.28 213.401L1358.12 247.92C1358.52 248.402 1358.35 249.506 1357.72 250.355C1357.52 250.582 1357.27 250.837 1357.01 250.978Z" stroke="#121315" stroke-width="0.566344" stroke-miterlimit="10" stroke-linecap="round" stroke-linejoin="round"/>
<path d="M1355.91 250.922L1354.07 249.818L1353.47 249.449L1343.37 243.333V242.993C1343.17 242.88 1342.97 242.767 1342.77 242.625C1341.98 242.144 1341.16 241.662 1340.36 241.181C1339.74 240.784 1337.93 239.708 1337.31 239.312L1336.68 238.264L1335.55 236.395L1334.93 235.347L1334.79 235.064L1329.91 226.343L1327.2 221.5L1328.87 217.394L1354.07 248.628L1354.3 248.911L1355.91 250.922Z" fill="#313740"/>
<path d="M1355.91 250.922L1354.07 249.818L1353.47 249.449L1343.37 243.333V242.993C1343.17 242.88 1342.97 242.767 1342.77 242.625C1341.98 242.144 1337.93 239.708 1337.31 239.312L1336.68 238.264L1335.55 236.395L1334.93 235.347L1334.79 235.064L1329.91 226.343L1327.2 221.5L1328.87 217.394L1354.07 248.628L1354.3 248.911L1355.91 250.922Z" stroke="#121315" stroke-width="0.566344" stroke-miterlimit="10" stroke-linecap="round" stroke-linejoin="round"/>
<path d="M1336.34 265.93V281.731L1331.1 284.789V269.073L1336.34 265.93Z" fill="white"/>
<path d="M1337.33 282.439L1324.93 289.915V288.357L1329.89 285.497V269.81L1331.1 269.073V284.789L1336.34 281.731V265.93L1337.33 265.335V281.165V282.439Z" fill="#808996"/>
<path d="M1329.89 269.809L1324.93 272.811V272.783L1329.89 269.809L1331.1 269.073L1336.34 265.93L1339.4 264.089V283.94L1324.93 292.661V289.915L1337.33 282.439V281.165V265.335L1336.34 265.93L1331.1 269.073L1329.89 269.809Z" fill="#121315"/>
<path d="M1328.02 213.458C1327.65 213.968 1327.42 214.563 1327.42 215.072L1327.28 215.469L1296.61 196.694V192.39L1329.91 212.552C1329.89 212.552 1329.86 212.524 1329.83 212.524C1329.8 212.495 1329.74 212.495 1329.69 212.495C1329.46 212.467 1329.21 212.524 1328.73 212.807C1328.5 212.92 1328.24 213.147 1328.02 213.458Z" fill="#4591FF"/>
<path d="M1324.93 288.357V289.915L1324.87 289.943V288.386V272.84L1324.93 272.811L1329.89 269.81V285.497L1324.93 288.357Z" fill="white"/>
<path d="M1310.83 281.533V297.051L1305.59 300.109V284.676L1310.83 281.533Z" fill="white"/>
<path d="M1305.59 284.676V300.109L1310.83 297.05V281.533L1311.82 280.91V296.484V298.042L1299.39 305.517V303.677L1304.34 300.817V285.412L1305.59 284.676Z" fill="#808996"/>
<path d="M1304.34 285.412L1305.59 284.648L1310.83 281.504L1313.89 279.664V299.542L1299.39 308.236V305.517L1311.82 298.042V296.484V280.91L1310.83 281.533L1305.59 284.676L1304.34 285.412L1299.39 288.386L1304.34 285.412Z" fill="#121315"/>
<path d="M1296.61 196.694L1327.28 215.469L1321.48 229.741L1314.06 248.005L1313.29 249.874L1311.88 253.385L1311.11 255.283L1309.87 258.369L1309.1 260.238L1307.66 263.835L1300.01 282.666L1299.93 282.892L1299.78 282.807L1298.26 281.873L1290.89 277.427L1288.71 276.096L1259.23 258.256L1258.7 257.916V257.746L1258.61 257.718L1253.43 254.603L1252.81 254.235L1247.77 251.205L1247.14 250.837L1242.1 247.807L1241.48 247.439L1236.69 244.551L1235.53 243.843V243.899L1218.4 233.535L1211.92 229.599L1212.2 228.891L1239.47 161.808C1239.47 161.779 1239.47 161.723 1239.47 161.694L1280.59 186.868L1289.34 192.22L1296.61 196.694Z" fill="#313740"/>
<path d="M1296.61 196.694L1327.28 215.469L1321.48 229.741L1314.06 248.005L1313.29 249.874L1311.88 253.385L1311.11 255.283L1309.87 258.369L1309.1 260.238L1307.66 263.835L1300.01 282.666L1299.93 282.892L1299.78 282.807L1298.26 281.873L1290.89 277.427L1288.71 276.096L1259.23 258.256L1258.7 257.916V257.746L1258.61 257.718L1253.43 254.603L1252.81 254.235L1247.77 251.205L1247.14 250.837L1242.1 247.807L1241.48 247.439L1236.69 244.551L1235.53 243.843V243.899L1218.4 233.535L1211.92 229.599L1212.2 228.891L1239.47 161.808C1239.47 161.779 1239.47 161.723 1239.47 161.694L1280.59 186.868L1289.34 192.22L1296.61 196.694Z" stroke="#121315" stroke-width="0.566344" stroke-miterlimit="10" stroke-linecap="round" stroke-linejoin="round"/>
<path d="M1299.39 303.677V305.518L1299.33 305.546V303.705V288.414L1299.39 288.386L1304.34 285.412V300.817L1299.39 303.677Z" fill="white"/>
<path d="M1235.5 291.529L1240.23 294.389L1241.11 294.927L1258.64 305.461L1258.75 305.376L1272.03 313.531C1272.03 322.706 1272.03 330.069 1272.03 330.069C1272.03 331.145 1272.88 332.022 1273.93 332.022C1274.98 332.022 1275.83 331.145 1275.83 330.069C1275.83 330.069 1275.83 323.895 1275.83 315.853L1289.93 324.518L1290.87 323.98V324.094L1343.39 293.001V289.065L1348.49 292.435L1275.23 336.582L1215.8 301.072L1190.71 286.092L1197.47 281.958C1197.47 283.968 1197.47 285.129 1197.47 285.129C1197.47 286.205 1198.32 287.083 1199.37 287.083C1200.42 287.083 1201.27 286.205 1201.27 285.129C1201.27 285.129 1201.27 283.005 1201.27 279.636L1210.73 273.831V276.039L1219.53 281.363L1235.56 291.189V291.529H1235.5Z" fill="#313740"/>
<path d="M1235.5 291.529L1240.23 294.389L1241.11 294.927L1258.64 305.461L1258.75 305.376L1272.03 313.531C1272.03 322.706 1272.03 330.069 1272.03 330.069C1272.03 331.145 1272.88 332.022 1273.93 332.022C1274.98 332.022 1275.83 331.145 1275.83 330.069C1275.83 330.069 1275.83 323.895 1275.83 315.853L1289.93 324.518L1290.87 323.98V324.094L1343.39 293.001V289.065L1348.49 292.435L1275.23 336.582L1215.8 301.072L1190.71 286.092L1197.47 281.958C1197.47 283.968 1197.47 285.129 1197.47 285.129C1197.47 286.205 1198.32 287.083 1199.37 287.083C1200.42 287.083 1201.27 286.205 1201.27 285.129C1201.27 285.129 1201.27 283.005 1201.27 279.636L1210.73 273.831V276.039L1219.53 281.363L1235.56 291.189V291.529H1235.5Z" stroke="#121315" stroke-width="0.566344" stroke-miterlimit="10" stroke-linecap="round" stroke-linejoin="round"/>
<path d="M1290.84 299.089V323.924L1289.9 324.462L1275.8 315.797C1275.8 311.577 1275.8 306.82 1275.8 302.176L1290.84 292.775V299.089Z" fill="#313740"/>
<path d="M1329.91 212.524C1329.89 212.524 1329.86 212.495 1329.83 212.495C1329.8 212.467 1329.74 212.467 1329.69 212.439C1329.46 212.41 1329.21 212.467 1328.73 212.75C1328.5 212.892 1328.24 213.118 1328.02 213.43C1327.65 213.94 1327.42 214.563 1327.42 215.044L1327.28 215.44L1296.61 196.666L1289.31 192.192L1280.56 186.84L1239.44 161.666C1239.47 161.185 1239.7 160.647 1240.04 160.165C1240.26 159.854 1240.49 159.627 1240.74 159.486C1241.23 159.202 1241.48 159.117 1241.71 159.174C1241.79 159.174 1241.85 159.202 1241.93 159.259L1280.56 182.649L1289.31 187.944L1296.61 192.362L1329.91 212.524Z" fill="#FFFEFD"/>
<path d="M1329.91 212.524C1329.89 212.524 1329.86 212.495 1329.83 212.495C1329.8 212.467 1329.74 212.467 1329.69 212.439C1329.46 212.41 1329.21 212.467 1328.73 212.75C1328.5 212.892 1328.24 213.118 1328.02 213.43C1327.65 213.94 1327.42 214.563 1327.42 215.044L1327.28 215.44L1296.61 196.666L1289.31 192.192L1280.56 186.84L1239.44 161.666C1239.47 161.185 1239.7 160.647 1240.04 160.165C1240.26 159.854 1240.49 159.627 1240.74 159.486C1241.23 159.202 1241.48 159.117 1241.71 159.174C1241.79 159.174 1241.85 159.202 1241.93 159.259L1280.56 182.649L1289.31 187.944L1296.61 192.362L1329.91 212.524Z" stroke="#121315" stroke-width="0.566344" stroke-miterlimit="10" stroke-linecap="round" stroke-linejoin="round"/>
<path d="M1276.9 299.429L1290.84 290.792V292.775L1275.8 302.176L1273.93 303.337V297.617L1276.85 299.401L1276.9 299.429Z" fill="#5E6876"/>
<path d="M1275.21 336.497V343.123L1236.13 319.79V317.609L1236.21 317.552L1236.13 317.496L1214.86 304.696L1212.94 303.564L1210.95 304.753L1190.68 292.662V285.979L1215.77 300.987L1275.21 336.497Z" fill="#313740"/>
<path d="M1275.21 336.497V343.123L1236.13 319.79V317.609L1236.21 317.552L1236.13 317.496L1214.86 304.696L1212.94 303.564L1210.95 304.753L1190.68 292.662V285.979L1215.77 300.987L1275.21 336.497Z" stroke="#121315" stroke-width="0.566344" stroke-miterlimit="10" stroke-linecap="round" stroke-linejoin="round"/>
<path d="M1273.93 303.337L1275.8 302.176C1275.8 306.82 1275.8 311.577 1275.8 315.797C1275.8 323.867 1275.8 330.012 1275.8 330.012C1275.8 331.088 1274.95 331.966 1273.9 331.966C1272.86 331.966 1272.01 331.088 1272.01 330.012C1272.01 330.012 1272.01 322.649 1272.01 313.475C1272.01 309.878 1272.01 305.999 1272.01 302.176L1273.93 303.337Z" fill="#AFB5BE"/>
<path d="M1274.33 330.408H1274.3C1274.04 330.408 1273.85 330.21 1273.85 329.955V303.62C1273.85 303.365 1274.04 303.167 1274.3 303.167H1274.33C1274.58 303.167 1274.78 303.365 1274.78 303.62V329.955C1274.78 330.182 1274.58 330.408 1274.33 330.408Z" fill="#808996"/>
<path d="M1272.03 302.204C1272.03 306.027 1272.03 309.907 1272.03 313.503L1258.75 305.347L1259.18 305.036V294.474L1272.03 302.204Z" fill="#313740"/>
<path d="M1251.87 281.816L1252.21 282.043L1252.84 282.411L1253.37 282.751L1257.68 285.356L1258.02 285.582L1258.64 285.95L1259.18 286.262L1276.85 296.994V296.966V299.401L1273.93 297.617L1259.18 288.669L1258.64 288.329L1258.02 287.961L1257.68 287.734L1252.84 284.818L1252.21 284.45V284.421L1251.87 284.223L1247.17 281.363L1246.55 280.995L1246.21 280.797L1241.54 277.937L1240.91 277.569L1240.55 277.342L1236.13 274.68L1235.5 274.284L1218.88 264.203L1216.33 262.645L1193.23 248.628L1188.75 245.91L1188.7 243.475L1216.31 260.238L1218.8 261.768L1235.5 271.905L1236.13 272.273L1236.67 272.613L1240.55 274.963L1240.91 275.162L1241.54 275.558L1242.07 275.87L1246.21 278.39L1246.55 278.616L1247.17 278.984L1247.71 279.296L1251.87 281.816Z" fill="#313740"/>
<path d="M1251.87 284.223L1252.21 284.421V284.449L1252.84 284.818L1257.68 287.734L1258.02 287.961L1258.64 288.329L1259.18 288.669L1273.93 297.617V303.337L1272.03 302.204L1259.18 294.445L1258.64 294.134L1258.02 293.738L1257.68 293.539L1253.37 290.934L1252.84 290.623L1252.21 290.254L1251.87 290.028L1247.71 287.536L1247.17 287.196L1246.55 286.828L1246.21 286.602L1242.07 284.11L1241.54 283.798L1240.91 283.402L1240.55 283.204L1236.67 280.853L1236.13 280.542L1235.5 280.174L1217.72 269.441L1216.42 268.648L1210.7 265.194L1201.24 259.474L1197.45 257.208L1193.23 254.66V248.628L1216.33 262.645L1218.88 264.203L1235.5 274.284L1236.13 274.68L1240.55 277.342L1240.91 277.568L1241.54 277.936L1246.21 280.797L1246.55 280.995L1247.17 281.363L1251.87 284.223Z" fill="#313740"/>
<path d="M1276.9 299.429L1290.84 290.792V292.775L1275.8 302.176L1273.93 303.337V297.617L1276.85 299.401L1276.9 299.429Z" stroke="#121315" stroke-width="0.566344" stroke-miterlimit="10" stroke-linecap="round" stroke-linejoin="round"/>
<path d="M1251.87 284.223L1252.21 284.421V284.449L1252.84 284.818L1257.68 287.734L1258.02 287.961L1258.64 288.329L1259.18 288.669L1273.93 297.617V303.337L1272.03 302.204L1259.18 294.445L1258.64 294.134L1258.02 293.738L1257.68 293.539L1253.37 290.934L1252.84 290.623L1252.21 290.254L1251.87 290.028L1247.71 287.536L1247.17 287.196L1246.55 286.828L1246.21 286.602L1242.07 284.11L1241.54 283.798L1240.91 283.402L1240.55 283.204L1236.67 280.853L1236.13 280.542L1235.5 280.174L1217.72 269.441L1216.42 268.648L1210.7 265.194L1201.24 259.474L1197.45 257.208L1193.23 254.66V248.628L1216.33 262.645L1218.88 264.203L1235.5 274.284L1236.13 274.68L1240.55 277.342L1240.91 277.568L1241.54 277.936L1246.21 280.797L1246.55 280.995L1247.17 281.363L1251.87 284.223Z" stroke="#121315" stroke-width="0.566344" stroke-miterlimit="10" stroke-linecap="round" stroke-linejoin="round"/>
<path d="M1258.64 305.263V296.541V295.805V294.134L1259.18 294.446V305.036L1258.75 305.348L1258.64 305.433V305.263Z" fill="#121315"/>
<path d="M1257.68 297.221V303.365L1253.37 300.789V294.615L1257.68 297.221Z" fill="#121315"/>
<path d="M1258.58 293.907V295.975L1253.23 292.775V290.679L1258.58 293.907Z" fill="#121315"/>
<path d="M1252.55 293.285V292.35V290.255L1253.23 290.679V292.775L1258.58 295.975V296.626V296.909L1253.23 293.681L1252.55 293.285Z" fill="#121315"/>
<path d="M1252.83 294.304V293.794L1253.37 294.106L1258.02 296.909V303.592V304.328L1257.68 304.102V303.903V303.365V297.221L1253.37 294.615L1253.03 294.417L1252.83 294.304Z" fill="#121315"/>
<path d="M1252.83 300.449V294.304L1253.03 294.417L1253.37 294.615V300.789L1257.68 303.365V303.904V304.102L1252.83 301.213V300.959V300.449Z" fill="#121315"/>
<path d="M1251.87 292.463V292.237V291.727V290.028L1252.21 290.254V291.925V292.661L1251.87 292.463Z" fill="#121315"/>
<path d="M1251.87 293.709V299.882L1247.71 297.39V291.217L1251.87 293.709Z" fill="#121315"/>
<path d="M1251.87 290.028V291.727L1247.71 289.207V287.536L1251.87 290.028Z" fill="#121315"/>
<path d="M1251.87 292.237V292.463L1247.71 289.971L1247.17 289.632V288.895V287.196L1247.71 287.536V289.207L1251.87 291.727V292.237Z" fill="#121315"/>
<path d="M1247.71 290.707L1252.21 293.398V300.08V300.817L1251.87 300.619V300.392V299.882V293.709L1247.71 291.217L1247.37 291.019L1247.17 290.906V290.368L1247.71 290.707Z" fill="#121315"/>
<path d="M1251.87 300.392V300.619L1247.17 297.787V297.674V297.051V290.906L1247.37 291.019L1247.71 291.217V297.39L1251.87 299.882V300.392Z" fill="#121315"/>
<path d="M1246.55 288.527V289.263L1246.21 289.037V288.839V288.301V286.602L1246.55 286.828V288.527Z" fill="#121315"/>
<path d="M1246.21 290.311V296.484L1242.07 293.992V287.819L1246.21 290.311Z" fill="#121315"/>
<path d="M1246.21 286.602V288.301L1242.07 285.809V284.11L1246.21 286.602Z" fill="#121315"/>
<path d="M1246.21 288.839V289.037L1242.07 286.573L1241.54 286.233V285.497V283.798L1242.07 284.11V285.809L1246.21 288.301V288.839Z" fill="#121315"/>
<path d="M1246.55 296.683V297.419L1246.21 297.221V296.994V296.484V290.311L1242.07 287.819L1241.71 287.621L1241.54 287.508V286.97L1242.07 287.31L1246.55 290V296.683Z" fill="#121315"/>
<path d="M1246.21 296.994V297.22L1241.54 294.389V293.907V293.652V287.508L1241.71 287.621L1242.07 287.819V293.992L1246.21 296.484V296.994Z" fill="#121315"/>
<path d="M1240.91 285.129V285.865L1240.55 285.639V285.441V283.204L1240.91 283.402V285.129Z" fill="#121315"/>
<path d="M1240.55 286.913V293.058L1236.67 290.736V284.591L1240.55 286.913Z" fill="#121315"/>
<path d="M1240.23 294.361L1235.5 291.529L1240.23 294.361Z" fill="#B4935E"/>
<path d="M1240.55 285.441V285.639L1236.67 283.317V282.581V280.853L1240.55 283.204V285.441Z" fill="#121315"/>
<path d="M1236.13 282.977V280.542L1236.67 280.853V282.581V283.317L1236.3 283.09L1236.13 282.977Z" fill="#121315"/>
<path d="M1236.13 283.741L1236.67 284.053L1240.91 286.602V293.284V294.021L1240.55 293.822V293.596V293.058V286.913L1236.67 284.591L1236.3 284.364L1236.13 284.251V283.741Z" fill="#121315"/>
<path d="M1236.3 284.364L1236.67 284.591V290.736L1240.55 293.058V293.596V293.822L1236.13 291.161V284.251L1236.3 284.364Z" fill="#121315"/>
<path d="M1236.13 317.496V317.609L1234.32 318.713L1227.89 322.565L1227.77 322.48L1206.54 309.794L1204.58 308.633L1210.95 304.753L1212.94 303.564L1214.86 304.696L1236.13 317.496Z" fill="white"/>
<path d="M1246.55 297.419V296.683V290L1242.05 287.31L1241.51 286.97V287.508V293.653V293.907V294.389L1246.18 297.192L1246.55 297.419ZM1252.84 300.449V300.93V301.185L1257.68 304.102L1258.02 304.328V303.592V296.909L1253.37 294.106L1252.84 293.766V294.304V300.449ZM1236.13 284.251V291.161L1240.55 293.822L1240.89 294.049V293.313V286.63L1236.67 284.081L1236.13 283.742V284.251ZM1252.21 293.398L1247.71 290.708L1247.17 290.396V290.906V297.051V297.674V297.787L1251.87 300.619L1252.21 300.845V300.109V293.398ZM1258.64 305.433L1241.11 294.899L1240.23 294.361L1235.5 291.529V291.104V280.174L1236.13 280.542V282.977L1236.3 283.09L1236.67 283.317L1240.55 285.639L1240.89 285.837V285.101V283.402L1241.51 283.77V285.469V286.205L1242.05 286.545L1246.18 289.037L1246.52 289.235V288.499V286.8L1247.14 287.168V288.867V289.603L1247.68 289.943L1251.82 292.435L1252.16 292.633V291.897V290.198L1252.78 290.566V292.237V292.973L1253.32 293.313L1257.62 295.89L1257.96 296.116V295.408V293.738L1258.58 294.106V295.776V296.513V305.234V305.433H1258.64Z" fill="#121315"/>
<path d="M1227.89 322.564L1234.32 318.713L1236.13 317.609V319.789V319.959L1227.77 324.971V322.479L1227.89 322.564Z" fill="#5E6876"/>
<path d="M1227.89 322.564L1234.32 318.713L1236.13 317.609V319.789V319.959L1227.77 324.971V322.479L1227.89 322.564Z" stroke="#121315" stroke-width="0.566344" stroke-miterlimit="10" stroke-linecap="round" stroke-linejoin="round"/>
<path d="M1227.77 322.479V324.971L1227.66 325.028L1204.58 311.238V310.954V308.632L1206.54 309.793L1227.77 322.479Z" fill="#313740"/>
<path d="M1227.77 322.479V324.971L1227.66 325.028L1204.58 311.238V310.954V308.632L1206.54 309.793L1227.77 322.479Z" stroke="#121315" stroke-width="0.566344" stroke-miterlimit="10" stroke-linecap="round" stroke-linejoin="round"/>
<path d="M1217.72 269.441L1235.5 280.173V291.076L1219.48 281.249L1210.7 275.926V273.745V265.194L1216.42 268.648L1217.72 269.441Z" fill="#313740"/>
<path d="M1217.72 269.441L1235.5 280.173V291.076L1219.48 281.249L1210.7 275.926V273.745V265.194L1216.42 268.648L1217.72 269.441Z" stroke="#121315" stroke-width="0.566344" stroke-miterlimit="10" stroke-linecap="round" stroke-linejoin="round"/>
<path d="M1199.34 286.998C1198.3 286.998 1197.45 286.12 1197.45 285.044C1197.45 285.044 1197.45 283.855 1197.45 281.873C1197.45 276.889 1197.45 266.864 1197.45 257.237L1201.21 259.53C1201.21 267.119 1201.21 274.68 1201.21 279.579C1201.21 282.949 1201.21 285.072 1201.21 285.072C1201.24 286.12 1200.39 286.998 1199.34 286.998Z" fill="#AFB5BE"/>
<path d="M1199.37 258.511C1199.34 258.539 1199.34 258.596 1199.34 258.653V284.931C1199.34 285.214 1199.57 285.441 1199.83 285.441C1200.08 285.441 1200.31 285.214 1200.31 284.931V259.077C1200 258.879 1199.68 258.709 1199.37 258.511Z" fill="#808996"/>
<path d="M1273.93 303.337L1275.8 302.176C1275.8 306.82 1275.8 311.577 1275.8 315.797C1275.8 323.867 1275.8 330.012 1275.8 330.012C1275.8 331.088 1274.95 331.966 1273.9 331.966C1272.86 331.966 1272.01 331.088 1272.01 330.012C1272.01 330.012 1272.01 322.649 1272.01 313.475C1272.01 309.878 1272.01 305.999 1272.01 302.176L1273.93 303.337Z" stroke="#121315" stroke-width="0.566344" stroke-miterlimit="10" stroke-linecap="round" stroke-linejoin="round"/>
<path d="M1199.34 286.998C1198.3 286.998 1197.45 286.12 1197.45 285.044C1197.45 285.044 1197.45 283.855 1197.45 281.873C1197.45 276.889 1197.45 266.864 1197.45 257.237L1201.21 259.53C1201.21 267.119 1201.21 274.68 1201.21 279.579C1201.21 282.949 1201.21 285.072 1201.21 285.072C1201.24 286.12 1200.39 286.998 1199.34 286.998Z" stroke="#121315" stroke-width="0.566344" stroke-miterlimit="10" stroke-linecap="round" stroke-linejoin="round"/>
<path d="M1236.13 317.496V317.609L1234.32 318.713L1227.89 322.565L1227.77 322.48L1206.54 309.794L1204.58 308.633L1210.95 304.753L1212.94 303.564L1214.86 304.696L1236.13 317.496Z" stroke="#121315" stroke-width="0.566344" stroke-miterlimit="10" stroke-linecap="round" stroke-linejoin="round"/>
<path d="M1247.71 251.177L1252.75 254.207L1253.37 254.575L1258.56 257.69L1258.64 257.718V257.888L1259.18 258.228L1288.66 276.068L1290.84 277.399L1298.2 281.844L1299.73 282.779L1299.62 282.864L1298.6 283.487L1298.28 283.685C1298.26 283.657 1298.23 283.657 1298.2 283.628V283.742L1290.84 288.301L1276.85 296.966H1276.82L1259.18 286.262L1258.64 285.922L1258.02 285.554L1257.68 285.327L1253.37 282.722L1252.84 282.382L1252.21 282.014L1251.87 281.788L1247.74 279.268L1247.2 278.928L1246.58 278.56L1246.24 278.333L1242.1 275.813L1241.56 275.473L1240.94 275.105L1240.6 274.907L1236.72 272.556L1236.18 272.217L1235.56 271.848L1218.85 261.711L1216.36 260.182L1188.78 243.418L1188.75 243.39L1211.94 229.542L1218.43 233.479L1235.56 243.843V243.758L1236.72 244.466L1241.51 247.354L1242.13 247.722L1247.17 250.752L1247.71 251.177Z" fill="white"/>
<path d="M1288.66 276.096L1290.84 277.427L1298.2 281.872L1299.73 282.807L1299.62 282.864L1290.84 288.3L1276.85 296.966V296.994L1259.18 286.262L1258.64 285.95L1258.02 285.582L1257.68 285.355L1253.37 282.75L1252.84 282.41L1252.21 282.042L1251.87 281.816L1247.71 279.296L1247.17 278.984L1246.55 278.616L1246.21 278.389L1242.07 275.869L1241.54 275.558L1240.91 275.161L1240.55 274.963L1236.67 272.613L1236.13 272.273L1235.5 271.905L1218.8 261.767L1216.31 260.238L1188.7 243.474H1188.67L1211.86 229.627L1218.37 233.535L1288.66 276.096Z" stroke="#121315" stroke-width="0.566344" stroke-miterlimit="10" stroke-linecap="round" stroke-linejoin="round"/>
<path d="M1186.32 322.734V329.559C1186.32 332.192 1185.24 334.656 1183.34 336.836C1181.02 339.498 1177.51 341.707 1173.21 343.179C1172.5 343.434 1171.73 343.661 1170.97 343.859C1170.21 344.057 1169.41 344.255 1168.59 344.425C1167.54 344.624 1166.47 344.822 1165.36 344.935C1164.57 345.02 1163.78 345.105 1162.98 345.162C1162.11 345.218 1161.23 345.247 1160.35 345.247C1145.99 345.247 1134.38 338.224 1134.38 329.559V322.734C1134.38 331.399 1146.02 338.422 1160.35 338.422C1161.23 338.422 1162.14 338.394 1162.98 338.337C1163.78 338.281 1164.6 338.224 1165.36 338.111C1166.47 337.969 1167.54 337.799 1168.59 337.601C1169.41 337.431 1170.21 337.261 1170.97 337.035C1171.73 336.836 1172.47 336.61 1173.21 336.355C1177.51 334.882 1181.05 332.674 1183.34 330.012C1185.24 327.86 1186.32 325.368 1186.32 322.734Z" fill="#FF9827"/>
<path d="M1160.35 338.422C1174.69 338.422 1186.32 331.398 1186.32 322.734C1186.32 314.07 1174.69 307.047 1160.35 307.047C1146.01 307.047 1134.38 314.07 1134.38 322.734C1134.38 331.398 1146.01 338.422 1160.35 338.422Z" fill="white"/>
<path d="M1134.38 322.734C1134.38 331.399 1146.02 338.422 1160.35 338.422C1174.71 338.422 1186.32 331.399 1186.32 322.734V329.559C1186.32 338.224 1174.68 345.247 1160.35 345.247C1145.99 345.247 1134.38 338.224 1134.38 329.559V322.734Z" stroke="#121315" stroke-width="0.566344" stroke-miterlimit="10"/>
<path d="M1160.35 338.422C1174.69 338.422 1186.32 331.398 1186.32 322.734C1186.32 314.07 1174.69 307.047 1160.35 307.047C1146.01 307.047 1134.38 314.07 1134.38 322.734C1134.38 331.398 1146.01 338.422 1160.35 338.422Z" stroke="#121315" stroke-width="0.566344" stroke-miterlimit="10"/>
<path d="M1170.29 319.223L1172.39 318.26L1169.98 316.901L1167.86 317.892C1167.09 317.581 1166.3 317.297 1165.48 317.128C1164.12 316.816 1162.79 316.703 1161.46 316.759C1160.12 316.844 1158.94 317.128 1157.86 317.609C1156.56 318.204 1155.91 318.912 1155.93 319.733C1155.93 320.554 1156.44 321.432 1157.41 322.395L1158.77 323.725C1159.19 324.15 1159.53 324.518 1159.76 324.886C1159.98 325.226 1160.07 325.566 1160.01 325.849C1159.95 326.132 1159.67 326.387 1159.22 326.614C1158.68 326.84 1158.09 326.982 1157.43 327.01C1156.75 327.039 1156.08 326.954 1155.37 326.755C1154.66 326.585 1153.98 326.302 1153.33 325.934C1152.71 325.566 1152.25 325.198 1151.94 324.83C1151.66 324.433 1151.54 324.065 1151.66 323.697C1151.77 323.329 1152.11 322.989 1152.71 322.649L1149.76 320.979C1148.6 321.573 1147.86 322.196 1147.55 322.904C1147.24 323.584 1147.35 324.32 1147.86 325.056C1148.2 325.566 1148.74 326.047 1149.42 326.557L1147.35 327.52L1149.76 328.879L1151.83 327.916C1152.73 328.341 1153.67 328.653 1154.6 328.879C1155.99 329.191 1157.32 329.304 1158.62 329.219C1159.93 329.134 1161.12 328.823 1162.16 328.341C1162.96 327.973 1163.49 327.577 1163.81 327.152C1164.12 326.727 1164.26 326.274 1164.2 325.821C1164.15 325.368 1163.98 324.915 1163.66 324.462C1163.35 324.009 1162.98 323.556 1162.5 323.131L1161.37 322.055C1161.12 321.828 1160.89 321.573 1160.69 321.318C1160.49 321.064 1160.35 320.809 1160.27 320.582C1160.18 320.327 1160.21 320.101 1160.32 319.874C1160.44 319.648 1160.69 319.45 1161.06 319.28C1161.51 319.081 1162.05 318.94 1162.64 318.911C1163.24 318.883 1163.86 318.94 1164.51 319.11C1165.16 319.28 1165.82 319.534 1166.44 319.874C1167.32 320.384 1167.83 320.894 1167.97 321.403C1168.08 321.913 1167.8 322.395 1167.12 322.791L1170.01 324.433C1171 323.952 1171.65 323.386 1171.93 322.734C1172.22 322.083 1172.13 321.403 1171.71 320.695C1171.37 320.157 1170.91 319.704 1170.29 319.223Z" fill="#FF9827"/>
<path d="M1186.32 313.305V320.129C1186.32 322.763 1185.24 325.226 1183.34 327.407C1181.02 330.068 1177.51 332.277 1173.21 333.75C1172.5 334.005 1171.73 334.231 1170.97 334.429C1170.21 334.628 1169.41 334.826 1168.59 334.996C1167.54 335.194 1166.47 335.392 1165.36 335.505C1164.57 335.59 1163.78 335.675 1162.98 335.732C1162.11 335.789 1161.23 335.817 1160.35 335.817C1145.99 335.817 1134.38 328.794 1134.38 320.129V313.305C1134.38 321.97 1146.02 328.992 1160.35 328.992C1161.23 328.992 1162.14 328.964 1162.98 328.907C1163.78 328.851 1164.6 328.794 1165.36 328.681C1166.47 328.539 1167.54 328.369 1168.59 328.171C1169.41 328.001 1170.21 327.831 1170.97 327.605C1171.73 327.407 1172.47 327.18 1173.21 326.925C1177.51 325.453 1181.05 323.244 1183.34 320.582C1185.24 318.402 1186.32 315.938 1186.32 313.305Z" fill="#FF9827"/>
<path d="M1160.35 328.992C1174.69 328.992 1186.32 321.969 1186.32 313.305C1186.32 304.641 1174.69 297.617 1160.35 297.617C1146.01 297.617 1134.38 304.641 1134.38 313.305C1134.38 321.969 1146.01 328.992 1160.35 328.992Z" fill="white"/>
<path d="M1134.38 313.305C1134.38 321.97 1146.02 328.992 1160.35 328.992C1174.71 328.992 1186.32 321.97 1186.32 313.305V320.129C1186.32 328.794 1174.68 335.817 1160.35 335.817C1145.99 335.817 1134.38 328.794 1134.38 320.129V313.305Z" stroke="#121315" stroke-width="0.566344" stroke-miterlimit="10"/>
<path d="M1160.35 328.992C1174.69 328.992 1186.32 321.969 1186.32 313.305C1186.32 304.641 1174.69 297.617 1160.35 297.617C1146.01 297.617 1134.38 304.641 1134.38 313.305C1134.38 321.969 1146.01 328.992 1160.35 328.992Z" stroke="#121315" stroke-width="0.566344" stroke-miterlimit="10"/>
<path d="M1170.29 309.793L1172.39 308.831L1169.98 307.471L1167.86 308.462C1167.09 308.151 1166.3 307.868 1165.48 307.698C1164.12 307.386 1162.79 307.273 1161.46 307.33C1160.12 307.386 1158.94 307.698 1157.86 308.179C1156.56 308.774 1155.91 309.482 1155.93 310.303C1155.93 311.124 1156.44 312.002 1157.41 312.965L1158.77 314.296C1159.19 314.721 1159.53 315.089 1159.76 315.457C1159.98 315.797 1160.07 316.136 1160.01 316.42C1159.95 316.703 1159.67 316.958 1159.22 317.184C1158.68 317.411 1158.09 317.552 1157.43 317.581C1156.75 317.609 1156.08 317.524 1155.37 317.326C1154.66 317.156 1153.98 316.873 1153.33 316.504C1152.71 316.136 1152.25 315.768 1151.94 315.4C1151.66 315.004 1151.54 314.636 1151.66 314.267C1151.77 313.899 1152.11 313.56 1152.71 313.22L1149.76 311.549C1148.6 312.144 1147.86 312.767 1147.55 313.475C1147.24 314.154 1147.35 314.89 1147.86 315.627C1148.2 316.136 1148.74 316.618 1149.42 317.127L1147.35 318.09L1149.76 319.449L1151.83 318.487C1152.73 318.911 1153.67 319.223 1154.6 319.449C1155.99 319.761 1157.32 319.874 1158.62 319.789C1159.93 319.704 1161.12 319.393 1162.16 318.911C1162.96 318.543 1163.49 318.147 1163.81 317.722C1164.12 317.297 1164.26 316.844 1164.2 316.391C1164.15 315.938 1163.98 315.485 1163.66 315.032C1163.35 314.579 1162.98 314.126 1162.5 313.701L1161.37 312.625C1161.12 312.398 1160.89 312.144 1160.69 311.889C1160.49 311.634 1160.35 311.379 1160.27 311.153C1160.18 310.898 1160.21 310.671 1160.32 310.445C1160.44 310.218 1160.69 310.02 1161.06 309.85C1161.51 309.652 1162.05 309.51 1162.64 309.482C1163.24 309.454 1163.86 309.51 1164.51 309.68C1165.16 309.85 1165.82 310.105 1166.44 310.445C1167.32 310.954 1167.83 311.464 1167.97 311.974C1168.08 312.483 1167.8 312.965 1167.12 313.361L1170.01 315.004C1171 314.522 1171.65 313.956 1171.93 313.305C1172.22 312.653 1172.13 311.974 1171.71 311.266C1171.37 310.699 1170.91 310.246 1170.29 309.793Z" fill="#FF9827"/>
<path d="M1186.32 303.847V310.671C1186.32 313.305 1185.24 315.768 1183.34 317.949C1181.02 320.61 1177.51 322.819 1173.21 324.292C1172.5 324.547 1171.73 324.773 1170.97 324.971C1170.21 325.17 1169.41 325.368 1168.59 325.538C1167.54 325.736 1166.47 325.934 1165.36 326.047C1164.57 326.132 1163.78 326.217 1162.98 326.274C1162.11 326.331 1161.23 326.359 1160.35 326.359C1145.99 326.359 1134.38 319.336 1134.38 310.671V303.847C1134.38 312.512 1146.02 319.534 1160.35 319.534C1161.23 319.534 1162.14 319.506 1162.98 319.449C1163.78 319.393 1164.6 319.336 1165.36 319.223C1166.47 319.081 1167.54 318.911 1168.59 318.713C1169.41 318.543 1170.21 318.373 1170.97 318.147C1171.73 317.949 1172.47 317.722 1173.21 317.467C1177.51 315.995 1181.05 313.786 1183.34 311.124C1185.24 308.944 1186.32 306.48 1186.32 303.847Z" fill="#FF9827"/>
<path d="M1160.35 319.534C1174.69 319.534 1186.32 312.511 1186.32 303.847C1186.32 295.183 1174.69 288.159 1160.35 288.159C1146.01 288.159 1134.38 295.183 1134.38 303.847C1134.38 312.511 1146.01 319.534 1160.35 319.534Z" fill="white"/>
<path d="M1134.38 303.847C1134.38 312.512 1146.02 319.534 1160.35 319.534C1174.71 319.534 1186.32 312.512 1186.32 303.847V310.671C1186.32 319.336 1174.68 326.359 1160.35 326.359C1145.99 326.359 1134.38 319.336 1134.38 310.671V303.847Z" stroke="#121315" stroke-width="0.566344" stroke-miterlimit="10"/>
<path d="M1160.35 319.534C1174.69 319.534 1186.32 312.511 1186.32 303.847C1186.32 295.183 1174.69 288.159 1160.35 288.159C1146.01 288.159 1134.38 295.183 1134.38 303.847C1134.38 312.511 1146.01 319.534 1160.35 319.534Z" stroke="#121315" stroke-width="0.566344" stroke-miterlimit="10"/>
<path d="M1170.29 300.335L1172.39 299.373L1169.98 298.013L1167.86 299.004C1167.09 298.693 1166.3 298.41 1165.48 298.24C1164.12 297.928 1162.79 297.815 1161.46 297.872C1160.12 297.957 1158.94 298.24 1157.86 298.721C1156.56 299.316 1155.91 300.024 1155.93 300.845C1155.93 301.666 1156.44 302.544 1157.41 303.507L1158.77 304.838C1159.19 305.262 1159.53 305.631 1159.76 305.999C1159.98 306.339 1160.07 306.678 1160.01 306.962C1159.95 307.245 1159.67 307.5 1159.22 307.726C1158.68 307.953 1158.09 308.094 1157.43 308.123C1156.75 308.151 1156.08 308.066 1155.37 307.868C1154.66 307.698 1153.98 307.415 1153.33 307.046C1152.71 306.678 1152.25 306.31 1151.94 305.942C1151.66 305.546 1151.54 305.178 1151.66 304.809C1151.77 304.441 1152.11 304.101 1152.71 303.762L1149.76 302.091C1148.6 302.686 1147.86 303.309 1147.55 304.017C1147.24 304.696 1147.35 305.432 1147.86 306.169C1148.2 306.678 1148.74 307.16 1149.42 307.669L1147.35 308.632L1149.76 309.991L1151.83 309.029C1152.73 309.453 1153.67 309.765 1154.6 309.991C1155.99 310.303 1157.32 310.416 1158.62 310.331C1159.93 310.246 1161.12 309.935 1162.16 309.453C1162.96 309.085 1163.49 308.689 1163.81 308.264C1164.12 307.839 1164.26 307.386 1164.2 306.933C1164.15 306.48 1163.98 306.027 1163.66 305.574C1163.35 305.121 1162.98 304.668 1162.5 304.243L1161.37 303.167C1161.12 302.94 1160.89 302.686 1160.69 302.431C1160.49 302.176 1160.35 301.921 1160.27 301.695C1160.18 301.44 1160.21 301.213 1160.32 300.987C1160.44 300.76 1160.69 300.562 1161.06 300.392C1161.51 300.194 1162.05 300.052 1162.64 300.024C1163.24 299.995 1163.86 300.052 1164.51 300.222C1165.16 300.392 1165.82 300.647 1166.44 300.987C1167.32 301.496 1167.83 302.006 1167.97 302.516C1168.08 303.025 1167.8 303.507 1167.12 303.903L1170.01 305.546C1171 305.064 1171.65 304.498 1171.93 303.847C1172.22 303.195 1172.13 302.516 1171.71 301.808C1171.37 301.27 1170.91 300.788 1170.29 300.335Z" fill="#FF9827"/>
<path d="M1186.32 294.388V301.213C1186.32 303.846 1185.24 306.31 1183.34 308.49C1181.02 311.152 1177.51 313.361 1173.21 314.833C1172.5 315.088 1171.73 315.315 1170.97 315.513C1170.21 315.711 1169.41 315.91 1168.59 316.079C1167.54 316.278 1166.47 316.476 1165.36 316.589C1164.57 316.674 1163.78 316.759 1162.98 316.816C1162.11 316.872 1161.23 316.901 1160.35 316.901C1145.99 316.901 1134.38 309.878 1134.38 301.213V294.388C1134.38 303.053 1146.02 310.076 1160.35 310.076C1161.23 310.076 1162.14 310.048 1162.98 309.991C1163.78 309.935 1164.6 309.878 1165.36 309.765C1166.47 309.623 1167.54 309.453 1168.59 309.255C1169.41 309.085 1170.21 308.915 1170.97 308.689C1171.73 308.49 1172.47 308.264 1173.21 308.009C1177.51 306.537 1181.05 304.328 1183.34 301.666C1185.24 299.514 1186.32 297.022 1186.32 294.388Z" fill="#FF9827"/>
<path d="M1160.35 310.076C1174.69 310.076 1186.32 303.053 1186.32 294.389C1186.32 285.725 1174.69 278.701 1160.35 278.701C1146.01 278.701 1134.38 285.725 1134.38 294.389C1134.38 303.053 1146.01 310.076 1160.35 310.076Z" fill="white"/>
<path d="M1134.38 294.388C1134.38 303.053 1146.02 310.076 1160.35 310.076C1174.71 310.076 1186.32 303.053 1186.32 294.388V301.213C1186.32 309.878 1174.68 316.901 1160.35 316.901C1145.99 316.901 1134.38 309.878 1134.38 301.213V294.388Z" stroke="#121315" stroke-width="0.566344" stroke-miterlimit="10"/>
<path d="M1160.35 310.076C1174.69 310.076 1186.32 303.053 1186.32 294.389C1186.32 285.725 1174.69 278.701 1160.35 278.701C1146.01 278.701 1134.38 285.725 1134.38 294.389C1134.38 303.053 1146.01 310.076 1160.35 310.076Z" stroke="#121315" stroke-width="0.566344" stroke-miterlimit="10"/>
<path d="M1170.29 290.877L1172.39 289.914L1169.98 288.555L1167.86 289.546C1167.09 289.235 1166.3 288.952 1165.48 288.782C1164.12 288.47 1162.79 288.357 1161.46 288.414C1160.12 288.499 1158.94 288.782 1157.86 289.263C1156.56 289.858 1155.91 290.566 1155.93 291.387C1155.93 292.208 1156.44 293.086 1157.41 294.049L1158.77 295.38C1159.19 295.804 1159.53 296.173 1159.76 296.541C1159.98 296.881 1160.07 297.22 1160.01 297.504C1159.95 297.787 1159.67 298.042 1159.22 298.268C1158.68 298.495 1158.09 298.636 1157.43 298.665C1156.75 298.693 1156.08 298.608 1155.37 298.41C1154.66 298.24 1153.98 297.957 1153.33 297.588C1152.71 297.22 1152.25 296.852 1151.94 296.484C1151.66 296.088 1151.54 295.72 1151.66 295.351C1151.77 294.983 1152.11 294.643 1152.71 294.304L1149.76 292.633C1148.6 293.228 1147.86 293.851 1147.55 294.559C1147.24 295.238 1147.35 295.974 1147.86 296.711C1148.2 297.22 1148.74 297.702 1149.42 298.211L1147.35 299.174L1149.76 300.533L1151.83 299.571C1152.73 299.995 1153.67 300.307 1154.6 300.533C1155.99 300.845 1157.32 300.958 1158.62 300.873C1159.93 300.788 1161.12 300.477 1162.16 299.995C1162.96 299.627 1163.49 299.231 1163.81 298.806C1164.12 298.381 1164.26 297.928 1164.2 297.475C1164.15 297.022 1163.98 296.569 1163.66 296.116C1163.35 295.663 1162.98 295.21 1162.5 294.785L1161.37 293.709C1161.12 293.482 1160.89 293.228 1160.69 292.973C1160.49 292.718 1160.35 292.463 1160.27 292.237C1160.18 291.982 1160.21 291.755 1160.32 291.529C1160.44 291.302 1160.69 291.104 1161.06 290.934C1161.51 290.736 1162.05 290.594 1162.64 290.566C1163.24 290.537 1163.86 290.594 1164.51 290.764C1165.16 290.934 1165.82 291.189 1166.44 291.529C1167.32 292.038 1167.83 292.548 1167.97 293.058C1168.08 293.567 1167.8 294.049 1167.12 294.445L1170.01 296.088C1171 295.606 1171.65 295.04 1171.93 294.389C1172.22 293.737 1172.13 293.058 1171.71 292.35C1171.37 291.812 1170.91 291.359 1170.29 290.877Z" fill="#FF9827"/>
<defs>
<filter id="filter0_f_893_2" x="861.647" y="-349.165" width="887.363" height="861.545" filterUnits="userSpaceOnUse" color-interpolation-filters="sRGB">
<feFlood flood-opacity="0" result="BackgroundImageFix"/>
<feBlend mode="normal" in="SourceGraphic" in2="BackgroundImageFix" result="shape"/>
<feGaussianBlur stdDeviation="134.86" result="effect1_foregroundBlur_893_2"/>
</filter>
<filter id="filter1_f_893_2" x="968.061" y="-75.098" width="476.239" height="410.764" filterUnits="userSpaceOnUse" color-interpolation-filters="sRGB">
<feFlood flood-opacity="0" result="BackgroundImageFix"/>
<feBlend mode="normal" in="SourceGraphic" in2="BackgroundImageFix" result="shape"/>
<feGaussianBlur stdDeviation="26.9721" result="effect1_foregroundBlur_893_2"/>
</filter>
<filter id="filter2_f_893_2" x="992.028" y="-204.972" width="704.72" height="588.182" filterUnits="userSpaceOnUse" color-interpolation-filters="sRGB">
<feFlood flood-opacity="0" result="BackgroundImageFix"/>
<feBlend mode="normal" in="SourceGraphic" in2="BackgroundImageFix" result="shape"/>
<feGaussianBlur stdDeviation="13.486" result="effect1_foregroundBlur_893_2"/>
</filter>
<filter id="filter3_f_893_2" x="1105.6" y="-204.972" width="557.5" height="467.392" filterUnits="userSpaceOnUse" color-interpolation-filters="sRGB">
<feFlood flood-opacity="0" result="BackgroundImageFix"/>
<feBlend mode="normal" in="SourceGraphic" in2="BackgroundImageFix" result="shape"/>
<feGaussianBlur stdDeviation="13.486" result="effect1_foregroundBlur_893_2"/>
</filter>
<linearGradient id="paint0_linear_893_2" x1="1245.93" y1="-2.40733" x2="1387.1" y2="138.85" gradientUnits="userSpaceOnUse">
<stop offset="0.0001" stop-color="#0047C4"/>
<stop offset="1" stop-color="#FFFBF9"/>
</linearGradient>
<linearGradient id="paint1_linear_893_2" x1="1356.65" y1="-34.8671" x2="1422.99" y2="31.3892" gradientUnits="userSpaceOnUse">
<stop offset="0.0001" stop-color="white"/>
<stop offset="1" stop-color="#0047C4"/>
</linearGradient>
<linearGradient id="paint2_linear_893_2" x1="1476.4" y1="-114.137" x2="1593.42" y2="2.91973" gradientUnits="userSpaceOnUse">
<stop stop-color="#1F94DC"/>
<stop offset="0.0001" stop-color="#477CFC"/>
<stop offset="0.461458" stop-color="#C7D7FF"/>
<stop offset="1" stop-color="#214FF6"/>
</linearGradient>
<linearGradient id="paint3_linear_893_2" x1="1486.49" y1="-128.576" x2="1577.06" y2="-38.0004" gradientUnits="userSpaceOnUse">
<stop stop-color="#1F94DC"/>
<stop offset="0.0001" stop-color="#477CFC"/>
<stop offset="0.461458" stop-color="#D1DFFF"/>
<stop offset="1" stop-color="#477CFC"/>
</linearGradient>
<clipPath id="clip0_893_2">
<rect width="1728" height="513" fill="white"/>
</clipPath>
</defs>
</svg>
