<svg width="16" height="16" viewBox="0 0 16 16" fill="none" xmlns="http://www.w3.org/2000/svg">
<path d="M12.9053 2.84113H11.589V1.99082C11.589 1.7441 11.3981 1.54395 11.1624 1.54395C10.9268 1.54395 10.7359 1.7441 10.7359 1.99082V2.84113H5.264V1.99082C5.264 1.7441 5.07307 1.54395 4.83744 1.54395C4.60182 1.54395 4.41088 1.7441 4.41088 1.99082V2.84113H3.09463C2.389 2.84113 1.81494 3.44254 1.81494 4.18176V13.115C1.81494 13.8543 2.389 14.4555 3.09463 14.4555H12.9053C13.6109 14.4555 14.1849 13.8543 14.1849 13.115V4.18176C14.1848 3.44254 13.6109 2.84113 12.9053 2.84113ZM3.09463 3.73488H4.41088V4.52629C4.41088 4.77301 4.60182 4.97316 4.83744 4.97316C5.07307 4.97316 5.264 4.77316 5.264 4.52629V3.73488H10.7359V4.52629C10.7359 4.77301 10.9268 4.97316 11.1624 4.97316C11.3981 4.97316 11.589 4.77316 11.589 4.52629V3.73488H12.9053C13.1406 3.73488 13.3318 3.9352 13.3318 4.18176V6.35254H2.66807V4.18176C2.66807 3.9352 2.85947 3.73488 3.09463 3.73488ZM12.9053 13.5618H3.09463C2.85932 13.5618 2.66807 13.3613 2.66807 13.1149V7.24613H13.3317V13.1149C13.3318 13.3613 13.1404 13.5618 12.9053 13.5618Z" fill="white"/>
<path d="M10.0168 9.84375H5.98308C5.74746 9.84375 5.55652 10.0438 5.55652 10.2906C5.55652 10.5375 5.74746 10.7375 5.98308 10.7375H10.0167C10.2523 10.7375 10.4432 10.5375 10.4432 10.2906C10.4432 10.0438 10.2523 9.84375 10.0168 9.84375Z" fill="white"/>
</svg>
