<svg width="20" height="20" viewBox="0 0 20 20" fill="none" xmlns="http://www.w3.org/2000/svg">
<path d="M16.2572 6.73401H4.10361L4.02636 6.45077C3.84612 5.83279 4.15511 5.17618 4.73447 4.91869L12.4979 1.46829C12.8068 1.32667 13.1673 1.3138 13.4892 1.44255C13.8111 1.57129 14.0686 1.80303 14.2102 2.1249L16.2572 6.73401ZM4.76021 5.96153H15.0599L13.5021 2.43389C13.4506 2.30514 13.3476 2.21502 13.2188 2.16352C13.0901 2.11202 12.9485 2.11202 12.8197 2.1764L5.05633 5.62679C4.90184 5.69116 4.81171 5.81991 4.76021 5.96153Z" fill="white"/>
<path d="M16.2572 6.73401H2.66162V6.09028C2.66162 4.88006 3.64009 3.90159 4.8503 3.90159H7.02611L12.4978 1.46829C12.8068 1.32667 13.1673 1.3138 13.4892 1.44255C13.811 1.57129 14.0685 1.80303 14.2101 2.1249L16.2572 6.73401ZM3.4341 5.96153H15.0599L13.502 2.43389C13.4505 2.30514 13.3475 2.21502 13.2188 2.16352C13.09 2.11202 12.9484 2.11202 12.8197 2.1764L7.19348 4.67407H4.8503C4.11645 4.67407 3.51134 5.24055 3.4341 5.96153Z" fill="white"/>
<path d="M16.3087 16.7766H3.69159C3.12511 16.7766 2.66162 16.3131 2.66162 15.7466V5.96191H16.3087C16.8752 5.96191 17.3387 6.4254 17.3387 6.99188V15.7466C17.3387 16.3131 16.8752 16.7766 16.3087 16.7766ZM3.4341 6.73439V15.7466C3.4341 15.8882 3.54997 16.0041 3.69159 16.0041H16.3087C16.4503 16.0041 16.5662 15.8882 16.5662 15.7466V6.99188C16.5662 6.85026 16.4503 6.73439 16.3087 6.73439H3.4341Z" fill="white"/>
<path d="M14.0555 13.3C13.4504 13.3 12.9612 12.8108 12.9612 12.2057V10.6607C12.9612 10.0556 13.4504 9.56638 14.0555 9.56638C14.6606 9.56638 15.1498 10.0556 15.1498 10.6607V12.2057C15.1498 12.8108 14.6606 13.3 14.0555 13.3ZM14.0555 10.3389C13.8752 10.3389 13.7336 10.4805 13.7336 10.6607V12.2057C13.7336 12.3859 13.8752 12.5275 14.0555 12.5275C14.2357 12.5275 14.3774 12.3859 14.3774 12.2057V10.6607C14.3774 10.4805 14.2357 10.3389 14.0555 10.3389ZM6.78662 6.00938L14.0008 2.9375L14.3033 3.64818L7.0893 6.72006L6.78662 6.00938Z" fill="white"/>
</svg>
