<svg width="25" height="24" viewBox="0 0 25 24" fill="none" xmlns="http://www.w3.org/2000/svg">
<g clip-path="url(#clip0_1132_14298)">
<path d="M15.1369 21.3615H9.06221L3.88379 16.1333V7.56895C3.90922 7.13743 4.09874 6.73199 4.41352 6.43573C4.72829 6.13947 5.14447 5.97484 5.57673 5.97559H15.1867C16.083 5.97559 16.8298 6.67268 16.8796 7.56895V19.7681C16.8298 20.7142 16.083 21.4113 15.1369 21.3615ZM9.60993 20.1665H15.1369C15.3361 20.1665 15.5352 20.0171 15.5352 19.7681V7.56895C15.5352 7.36978 15.3361 7.17061 15.1369 7.17061H5.52694C5.32777 7.17061 5.1286 7.31999 5.1286 7.56895V15.6353L9.60993 20.1665Z" fill="white"/>
<path d="M10.0083 21.3607C9.65979 21.3607 9.36103 21.0619 9.36103 20.7134V15.8337H4.53116C4.18261 15.8835 3.88385 15.5848 3.83406 15.2362C3.78427 14.8877 4.08302 14.5889 4.43157 14.5391H9.51041C10.1079 14.5391 10.6058 15.037 10.6556 15.6345V20.7632C10.6058 21.1117 10.3071 21.3607 10.0083 21.3607ZM8.66394 3.78392V2.73828H10.8548V3.78392H8.66394ZM12.5478 3.78392V2.73828H14.7386V3.78392H12.5478ZM16.2324 3.78392V2.73828H18.4233V3.78392H16.2324ZM16.1826 19.2196V18.174H18.3735V19.2694L16.1826 19.2196ZM19.0208 4.08268H20.1162V6.52251H19.0208V4.08268ZM6.67224 3.63455H7.71788V5.87521H6.67224V3.63455ZM19.0208 7.66774H20.1162V10.1076H19.0208V7.66774ZM19.0208 11.3026H20.1162V13.7424H19.0208V11.3026ZM19.0208 15.0868H20.1162V17.5267H19.0208V15.0868Z" fill="white"/>
</g>
<defs>
<clipPath id="clip0_1132_14298">
<rect width="24.0469" height="24" fill="white"/>
</clipPath>
</defs>
</svg>
