<svg width="16" height="16" viewBox="0 0 16 16" fill="none" xmlns="http://www.w3.org/2000/svg">
<path d="M5.71429 10.8571C6.66107 10.8571 7.42857 11.6246 7.42857 12.5714V14.2857C7.42857 15.2325 6.66107 16 5.71429 16H1.71429C0.7675 16 0 15.2325 0 14.2857V12.5714C0 11.6246 0.7675 10.8571 1.71429 10.8571H5.71429ZM5.71429 12H1.71429C1.40186 12 1.14798 12.2507 1.14293 12.562L1.14286 12.5714V14.2857C1.14286 14.5981 1.39361 14.852 1.70482 14.8571L1.71429 14.8571H5.71429C6.02671 14.8571 6.28059 14.6064 6.28564 14.2952L6.28571 14.2857V12.5714C6.28571 12.259 6.03496 12.0051 5.72375 12.0001L5.71429 12ZM14.2857 6.28571C15.2325 6.28571 16 7.05321 16 8V14.2857C16 15.2325 15.2325 16 14.2857 16H10.2857C9.33893 16 8.57143 15.2325 8.57143 14.2857V8C8.57143 7.05321 9.33893 6.28571 10.2857 6.28571H14.2857ZM14.2857 7.42857H10.2857C9.97329 7.42857 9.71941 7.67932 9.71436 7.99054L9.71429 8V14.2857C9.71429 14.5981 9.96504 14.852 10.2762 14.8571L10.2857 14.8571H14.2857C14.5981 14.8571 14.852 14.6064 14.8571 14.2952L14.8571 14.2857V8C14.8571 7.68757 14.6064 7.4337 14.2952 7.42864L14.2857 7.42857ZM5.71429 0C6.66107 0 7.42857 0.7675 7.42857 1.71429V8C7.42857 8.94679 6.66107 9.71429 5.71429 9.71429H1.71429C0.7675 9.71429 0 8.94679 0 8V1.71429C0 0.7675 0.7675 0 1.71429 0H5.71429ZM5.71429 1.14286H1.71429C1.40186 1.14286 1.14798 1.39361 1.14293 1.70482L1.14286 1.71429V8C1.14286 8.31243 1.39361 8.5663 1.70482 8.57136L1.71429 8.57143H5.71429C6.02671 8.57143 6.28059 8.32068 6.28564 8.00947L6.28571 8V1.71429C6.28571 1.40186 6.03496 1.14798 5.72375 1.14293L5.71429 1.14286ZM14.2857 0C15.2325 0 16 0.7675 16 1.71429V3.42857C16 4.37536 15.2325 5.14286 14.2857 5.14286H10.2857C9.33893 5.14286 8.57143 4.37536 8.57143 3.42857V1.71429C8.57143 0.7675 9.33893 0 10.2857 0H14.2857ZM14.2857 1.14286H10.2857C9.97329 1.14286 9.71941 1.39361 9.71436 1.70482L9.71429 1.71429V3.42857C9.71429 3.741 9.96504 3.99488 10.2762 3.99993L10.2857 4H14.2857C14.5981 4 14.852 3.74925 14.8571 3.43804L14.8571 3.42857V1.71429C14.8571 1.40186 14.6064 1.14798 14.2952 1.14293L14.2857 1.14286Z" fill="white"/>
</svg>
