<svg width="16" height="16" viewBox="0 0 16 16" fill="none" xmlns="http://www.w3.org/2000/svg">
<path d="M11.3335 4V6.66667V7C10.3485 7 9.46323 7.42727 8.853 8.1066C8.32276 8.69687 8.00016 9.47743 8.00016 10.3333C8.00016 10.5263 8.01656 10.7154 8.04803 10.8994C8.21946 11.9015 8.83826 12.751 9.69153 13.2349C8.80403 13.5032 7.62603 13.6667 6.3335 13.6667C3.57206 13.6667 1.3335 12.9205 1.3335 12V9.33333V6.66667V4" stroke="white" stroke-linecap="round" stroke-linejoin="round"/>
<path d="M11.3335 3.99967C11.3335 4.92014 9.09493 5.66634 6.3335 5.66634C3.57206 5.66634 1.3335 4.92014 1.3335 3.99967C1.3335 3.0792 3.57206 2.33301 6.3335 2.33301C9.09493 2.33301 11.3335 3.0792 11.3335 3.99967Z" stroke="white" stroke-linecap="round" stroke-linejoin="round"/>
<path d="M1.3335 9.33301C1.3335 10.2535 3.57206 10.9997 6.3335 10.9997C6.93583 10.9997 7.51326 10.9642 8.04803 10.8991" stroke="white" stroke-linecap="round" stroke-linejoin="round"/>
<path d="M1.3335 6.66699C1.3335 7.58746 3.57206 8.33366 6.3335 8.33366C7.25226 8.33366 8.11316 8.25106 8.853 8.10693" stroke="white" stroke-linecap="round" stroke-linejoin="round"/>
<path d="M14.6667 10.3333C14.6667 12.1743 13.1743 13.6667 11.3333 13.6667C10.7364 13.6667 10.176 13.5097 9.69137 13.2349C8.8381 12.751 8.2193 11.9015 8.04787 10.8994C8.0164 10.7154 8 10.5263 8 10.3333C8 9.47743 8.3226 8.69687 8.85283 8.1066C9.46307 7.42727 10.3483 7 11.3333 7C13.1743 7 14.6667 8.4924 14.6667 10.3333Z" stroke="white" stroke-linecap="round" stroke-linejoin="round"/>
</svg>
