<svg width="16" height="16" viewBox="0 0 16 16" fill="none" xmlns="http://www.w3.org/2000/svg">
<path d="M12.6449 16H9.61683C9.56022 15.9999 9.50418 15.9887 9.45192 15.9669C9.39966 15.9451 9.3522 15.9133 9.31226 15.8732C9.27232 15.833 9.24069 15.7854 9.21916 15.7331C9.19764 15.6807 9.18665 15.6246 9.18683 15.568V9.7202C9.187 9.66884 9.17705 9.61796 9.15754 9.57045C9.13802 9.52294 9.10933 9.47975 9.07311 9.44334C9.03688 9.40693 8.99384 9.37802 8.94643 9.35827C8.89902 9.33852 8.84818 9.3283 8.79682 9.32821H7.13679C7.08542 9.3283 7.03459 9.33852 6.98718 9.35827C6.93977 9.37802 6.89672 9.40693 6.8605 9.44334C6.82427 9.47975 6.79558 9.52294 6.77607 9.57045C6.75656 9.61796 6.7466 9.66884 6.74678 9.7202V15.5687C6.74695 15.6828 6.70184 15.7923 6.62134 15.8732C6.54084 15.954 6.43154 15.9996 6.31744 16H3.19671C2.86052 15.9991 2.53845 15.8648 2.30129 15.6265C2.06413 15.3882 1.93131 15.0655 1.93201 14.7294V9.35355C1.93219 9.31515 1.92479 9.27709 1.91023 9.24155C1.89568 9.20601 1.87426 9.1737 1.8472 9.14645C1.82013 9.1192 1.78796 9.09756 1.75252 9.08277C1.71709 9.06797 1.67908 9.06031 1.64068 9.06022H0.843993C0.100645 9.06022 -0.278696 8.16292 0.238647 7.62694L7.34212 0.257172C7.41994 0.176406 7.51315 0.112042 7.61624 0.0678754C7.71934 0.0237087 7.83024 0.000634229 7.9424 1.28917e-05C8.05455 -0.000608446 8.1657 0.021236 8.26928 0.0642577C8.37286 0.107279 8.46677 0.170607 8.54548 0.250505L15.7443 7.5576C16.293 8.11425 15.9003 9.06022 15.1203 9.06022H14.2669C14.2257 9.06022 14.1849 9.06835 14.1469 9.08414C14.1088 9.09993 14.0742 9.12306 14.0451 9.15223C14.016 9.18139 13.993 9.21601 13.9772 9.2541C13.9615 9.2922 13.9535 9.33301 13.9536 9.37421V14.6854C13.9536 15.4107 13.3682 15.9987 12.6456 15.9987L12.6449 16ZM10.7915 14.9154H12.3489C12.4883 14.9148 12.6219 14.859 12.7203 14.7602C12.8186 14.6613 12.8737 14.5275 12.8736 14.3881V8.51491C12.8736 8.21758 13.1136 7.97626 13.4102 7.97626H14.4163C14.4345 7.97601 14.4522 7.97044 14.4672 7.96026C14.4823 7.95007 14.4941 7.9357 14.5011 7.91891C14.5081 7.90212 14.5101 7.88365 14.5067 7.86577C14.5034 7.84789 14.4949 7.83138 14.4823 7.81826L8.20347 1.44513C8.17033 1.41159 8.13081 1.38501 8.08724 1.36697C8.04367 1.34894 7.99692 1.3398 7.94977 1.34012C7.90261 1.34043 7.85599 1.35017 7.81266 1.36878C7.76933 1.38739 7.73016 1.41448 7.69746 1.44847L1.404 7.97626H2.47469C2.7707 7.97626 3.01137 8.21758 3.01137 8.51491V14.3881C3.01137 14.678 3.24604 14.9147 3.53605 14.9147H5.14275C5.28208 14.9142 5.41553 14.8585 5.51387 14.7597C5.61221 14.661 5.66742 14.5274 5.66742 14.3881V9.77087C5.66698 9.57065 5.70599 9.37231 5.78221 9.18717C5.85843 9.00202 5.97037 8.83371 6.11164 8.69182C6.25291 8.54994 6.42075 8.43727 6.60556 8.36024C6.79038 8.28322 6.98856 8.24335 7.18879 8.24292H8.74615C9.15041 8.24397 9.5377 8.40553 9.82287 8.69206C10.108 8.97858 10.2677 9.36663 10.2668 9.77087V14.3874C10.2668 14.678 10.5015 14.914 10.7922 14.9154H10.7915Z" fill="white"/>
</svg>
