<svg width="14" height="14" viewBox="0 0 14 14" fill="none" xmlns="http://www.w3.org/2000/svg">
<path d="M6.99973 1.27246C10.1631 1.27246 12.727 3.83637 12.727 6.99973C12.727 10.1631 10.1631 12.727 6.99973 12.727C3.83637 12.727 1.27246 10.1631 1.27246 6.99973C1.27246 3.83637 3.83637 1.27246 6.99973 1.27246ZM7.15882 5.09064H6.52246C6.39588 5.09064 6.27448 5.14093 6.18498 5.23043C6.09547 5.31994 6.04519 5.44133 6.04519 5.56792C6.04519 5.6945 6.09547 5.81589 6.18498 5.9054C6.27448 5.9949 6.39588 6.04519 6.52246 6.04519H6.68155V9.54519H6.20428C6.08563 9.54519 5.97125 9.58939 5.88342 9.66916C5.79559 9.74893 5.74062 9.85855 5.72923 9.97664L5.72701 10.0225C5.72701 10.149 5.77729 10.2704 5.8668 10.3599C5.9563 10.4494 6.0777 10.4997 6.20428 10.4997H8.11337C8.23995 10.4997 8.36135 10.4494 8.45085 10.3599C8.54036 10.2704 8.59064 10.149 8.59064 10.0225C8.59064 9.89588 8.54036 9.77448 8.45085 9.68498C8.36135 9.59547 8.23995 9.54519 8.11337 9.54519H7.6361V5.56792C7.63609 5.44927 7.5919 5.33488 7.51213 5.24706C7.43236 5.15923 7.32274 5.10426 7.20464 5.09287L7.15882 5.09064ZM6.99973 3.49973C6.91616 3.49972 6.8334 3.51617 6.75618 3.54815C6.67896 3.58012 6.6088 3.62699 6.5497 3.68609C6.49059 3.74518 6.44371 3.81534 6.41173 3.89255C6.37974 3.96976 6.36328 4.05252 6.36328 4.1361C6.36328 4.21967 6.37974 4.30243 6.41173 4.37964C6.44371 4.45686 6.49059 4.52701 6.5497 4.58611C6.6088 4.6452 6.67896 4.69207 6.75618 4.72405C6.8334 4.75602 6.91616 4.77247 6.99973 4.77246C7.16849 4.77244 7.33033 4.70538 7.44965 4.58604C7.56897 4.4667 7.636 4.30486 7.636 4.1361C7.636 3.96734 7.56897 3.80549 7.44965 3.68615C7.33033 3.56681 7.16849 3.49976 6.99973 3.49973Z" fill="#E8C24D"/>
</svg>
