<svg width="16" height="16" viewBox="0 0 16 16" fill="none" xmlns="http://www.w3.org/2000/svg">
<mask id="mask0_1132_8290" style="mask-type:luminance" maskUnits="userSpaceOnUse" x="0" y="0" width="16" height="16">
<mask id="path-1-inside-1_1132_8290" fill="white">
<path d="M8 16C3.6 16 0 12.4 0 8C0 3.6 3.6 0 8 0C12.4 0 16 3.6 16 8C16 12.4 12.4 16 8 16ZM10.4 7.6C10.3 3.8 9.1 0.8 8 0.8C6.9 0.8 5.7 3.8 5.6 7.6H10.4ZM10.4 8.4H5.6C5.7 12.2 6.9 15.2 8 15.2C9.1 15.2 10.3 12.2 10.4 8.4ZM0.800003 8.4C1 11.6 3.3 14.4 6.5 15C5.5 13.7 4.9 11.2 4.8 8.4H0.800003ZM0.800003 7.6H4.8C4.9 4.7 5.5 2.3 6.5 1C3.3 1.6 1 4.4 0.800003 7.6ZM15.2 7.6C15 4.4 12.7 1.6 9.5 1C10.5 2.3 11.1 4.8 11.2 7.6H15.2ZM15.2 8.4H11.2C11.1 11.3 10.5 13.7 9.5 15C12.7 14.4 15 11.6 15.2 8.4Z"/>
</mask>
<path d="M8 16C3.6 16 0 12.4 0 8C0 3.6 3.6 0 8 0C12.4 0 16 3.6 16 8C16 12.4 12.4 16 8 16ZM10.4 7.6C10.3 3.8 9.1 0.8 8 0.8C6.9 0.8 5.7 3.8 5.6 7.6H10.4ZM10.4 8.4H5.6C5.7 12.2 6.9 15.2 8 15.2C9.1 15.2 10.3 12.2 10.4 8.4ZM0.800003 8.4C1 11.6 3.3 14.4 6.5 15C5.5 13.7 4.9 11.2 4.8 8.4H0.800003ZM0.800003 7.6H4.8C4.9 4.7 5.5 2.3 6.5 1C3.3 1.6 1 4.4 0.800003 7.6ZM15.2 7.6C15 4.4 12.7 1.6 9.5 1C10.5 2.3 11.1 4.8 11.2 7.6H15.2ZM15.2 8.4H11.2C11.1 11.3 10.5 13.7 9.5 15C12.7 14.4 15 11.6 15.2 8.4Z" fill="white"/>
<path d="M10.4 7.6V8.6H11.4267L11.3997 7.57369L10.4 7.6ZM5.6 7.6L4.60034 7.57369L4.57334 8.6H5.6V7.6ZM10.4 8.4L11.3997 8.42631L11.4267 7.4H10.4V8.4ZM5.6 8.4V7.4H4.57334L4.60034 8.42631L5.6 8.4ZM0.800003 8.4V7.4H-0.264448L-0.19805 8.46238L0.800003 8.4ZM6.5 15L6.31571 15.9829L8.88881 16.4653L7.29262 14.3903L6.5 15ZM4.8 8.4L5.79937 8.36431L5.76493 7.4H4.8V8.4ZM0.800003 7.6L-0.19805 7.53762L-0.264448 8.6H0.800003V7.6ZM4.8 7.6V8.6H5.76611L5.79941 7.63446L4.8 7.6ZM6.5 1L7.29262 1.60971L8.88881 -0.465328L6.31571 0.0171278L6.5 1ZM15.2 7.6V8.6H16.2644L16.198 7.53762L15.2 7.6ZM9.5 1L9.68429 0.0171278L7.11119 -0.465328L8.70738 1.60971L9.5 1ZM11.2 7.6L10.2006 7.63569L10.2351 8.6H11.2V7.6ZM15.2 8.4L16.198 8.46238L16.2644 7.4H15.2V8.4ZM11.2 8.4V7.4H10.2339L10.2006 8.36554L11.2 8.4ZM9.5 15L8.70738 14.3903L7.11119 16.4653L9.68429 15.9829L9.5 15ZM8 16V15C4.15228 15 1 11.8477 1 8H0H-1C-1 12.9523 3.04772 17 8 17V16ZM0 8H1C1 4.15228 4.15228 1 8 1V0V-1C3.04772 -1 -1 3.04772 -1 8H0ZM8 0V1C11.8477 1 15 4.15228 15 8H16H17C17 3.04772 12.9523 -1 8 -1V0ZM16 8H15C15 11.8477 11.8477 15 8 15V16V17C12.9523 17 17 12.9523 17 8H16ZM10.4 7.6L11.3997 7.57369C11.3473 5.58569 11.0077 3.77516 10.5137 2.43018C10.2685 1.76273 9.96803 1.16241 9.61007 0.708714C9.27835 0.28828 8.73962 -0.2 8 -0.2V0.8V1.8C7.81038 1.8 7.83415 1.68672 8.03993 1.94754C8.21947 2.17509 8.43152 2.56227 8.63633 3.11982C9.04226 4.22484 9.35266 5.81431 9.40035 7.62631L10.4 7.6ZM8 0.8V-0.2C7.26038 -0.2 6.72165 0.28828 6.38993 0.708714C6.03197 1.16241 5.73152 1.76273 5.48633 2.43018C4.99225 3.77516 4.65266 5.58569 4.60034 7.57369L5.6 7.6L6.59965 7.62631C6.64734 5.81431 6.95774 4.22484 7.36367 3.11982C7.56848 2.56227 7.78053 2.17509 7.96007 1.94754C8.16585 1.68672 8.18962 1.8 8 1.8V0.8ZM5.6 7.6V8.6H10.4V7.6V6.6H5.6V7.6ZM10.4 8.4V7.4H5.6V8.4V9.4H10.4V8.4ZM5.6 8.4L4.60034 8.42631C4.65266 10.4143 4.99225 12.2248 5.48633 13.5698C5.73152 14.2373 6.03197 14.8376 6.38993 15.2913C6.72165 15.7117 7.26038 16.2 8 16.2V15.2V14.2C8.18962 14.2 8.16585 14.3133 7.96007 14.0525C7.78053 13.8249 7.56848 13.4377 7.36367 12.8802C6.95774 11.7752 6.64734 10.1857 6.59965 8.37369L5.6 8.4ZM8 15.2V16.2C8.73962 16.2 9.27835 15.7117 9.61007 15.2913C9.96803 14.8376 10.2685 14.2373 10.5137 13.5698C11.0077 12.2248 11.3473 10.4143 11.3997 8.42631L10.4 8.4L9.40035 8.37369C9.35266 10.1857 9.04226 11.7752 8.63633 12.8802C8.43152 13.4377 8.21947 13.8249 8.03993 14.0525C7.83415 14.3133 7.81038 14.2 8 14.2V15.2ZM0.800003 8.4L-0.19805 8.46238C0.0285012 12.0872 2.63484 15.2927 6.31571 15.9829L6.5 15L6.68429 14.0171C3.96516 13.5073 1.9715 11.1128 1.79806 8.33762L0.800003 8.4ZM6.5 15L7.29262 14.3903C6.90921 13.8919 6.55274 13.0886 6.28201 12.0175C6.01493 10.9607 5.84734 9.7075 5.79937 8.36431L4.8 8.4L3.80064 8.43569C3.85267 9.8925 4.03508 11.2893 4.34299 12.5075C4.64726 13.7114 5.09079 14.8081 5.70738 15.6097L6.5 15ZM4.8 8.4V7.4H0.800003V8.4V9.4H4.8V8.4ZM0.800003 7.6V8.6H4.8V7.6V6.6H0.800003V7.6ZM4.8 7.6L5.79941 7.63446C5.89746 4.79089 6.48883 2.65464 7.29262 1.60971L6.5 1L5.70738 0.390289C4.51117 1.94536 3.90254 4.60911 3.8006 7.56554L4.8 7.6ZM6.5 1L6.31571 0.0171278C2.63484 0.707291 0.0285012 3.91281 -0.19805 7.53762L0.800003 7.6L1.79806 7.66238C1.9715 4.88719 3.96516 2.49271 6.68429 1.98287L6.5 1ZM15.2 7.6L16.198 7.53762C15.9715 3.91281 13.3652 0.707291 9.68429 0.0171278L9.5 1L9.31571 1.98287C12.0348 2.49271 14.0285 4.88719 14.2019 7.66238L15.2 7.6ZM9.5 1L8.70738 1.60971C9.09079 2.10815 9.44726 2.91139 9.71799 3.98254C9.98507 5.03928 10.1527 6.2925 10.2006 7.63569L11.2 7.6L12.1994 7.56431C12.1473 6.1075 11.9649 4.71072 11.657 3.49246C11.3527 2.28861 10.9092 1.19185 10.2926 0.390289L9.5 1ZM11.2 7.6V8.6H15.2V7.6V6.6H11.2V7.6ZM15.2 8.4V7.4H11.2V8.4V9.4H15.2V8.4ZM11.2 8.4L10.2006 8.36554C10.1025 11.2091 9.51117 13.3454 8.70738 14.3903L9.5 15L10.2926 15.6097C11.4888 14.0546 12.0975 11.3909 12.1994 8.43446L11.2 8.4ZM9.5 15L9.68429 15.9829C13.3652 15.2927 15.9715 12.0872 16.198 8.46238L15.2 8.4L14.2019 8.33762C14.0285 11.1128 12.0348 13.5073 9.31571 14.0171L9.5 15Z" fill="white" mask="url(#path-1-inside-1_1132_8290)"/>
</mask>
<g mask="url(#mask0_1132_8290)">
<mask id="mask1_1132_8290" style="mask-type:luminance" maskUnits="userSpaceOnUse" x="0" y="0" width="16" height="16">
<path d="M15.5 0.5V15.5H0.5V0.5H15.5Z" fill="white" stroke="white"/>
</mask>
<g mask="url(#mask1_1132_8290)">
<path d="M16.5 -0.5V16.5H-0.5V-0.5H16.5Z" fill="white" stroke="white"/>
</g>
</g>
</svg>
