<svg width="16" height="16" viewBox="0 0 16 16" fill="none" xmlns="http://www.w3.org/2000/svg">
<path d="M15.2384 16H0.761333C0.341128 16 0 15.6229 0 15.1583V0.841531C0 0.377072 0.341113 0 0.761333 0H9.52458V1.2622H1.52452C1.31273 1.2622 1.14212 1.4507 1.14212 1.68303V14.3167C1.14212 14.5491 1.31273 14.7374 1.52452 14.7374H14.4755C14.6871 14.7374 14.8579 14.5491 14.8579 14.3167V6.31591H16V15.1583C16 15.6229 15.6589 16 15.2384 16ZM14.0949 4.20995C13.8895 4.20995 13.6934 4.1643 13.5141 4.08244L6.92174 11.3692L6.85793 11.2968L6.79241 11.3692L4.57015 8.91285L2.73049 10.9465L1.90871 10.0383L4.51512 7.15742L4.57186 7.22014L4.62876 7.15742L6.85793 9.62136L12.6909 3.17388C12.6149 2.97403 12.572 2.75693 12.572 2.52665C12.572 1.59543 13.2541 0.841496 14.0949 0.841496C14.9372 0.841496 15.6194 1.59542 15.6194 2.52665C15.6194 3.45576 14.9372 4.20992 14.0949 4.20992L14.0949 4.20995Z" fill="white"/>
</svg>
