<svg width="12" height="12" viewBox="0 0 12 12" fill="none" xmlns="http://www.w3.org/2000/svg">
<path d="M10.1717 5.38672H1.82811C1.50091 5.38672 1.2146 5.67305 1.2146 6.00023C1.2146 6.32741 1.50094 6.61374 1.82811 6.61374H10.1717C10.4989 6.61374 10.7853 6.32741 10.7853 6.00023C10.7853 5.67305 10.4989 5.38672 10.1717 5.38672Z" fill="white"/>
<path d="M10.1717 8.94531H1.82811C1.50091 8.94531 1.2146 9.23165 1.2146 9.55882C1.2146 9.886 1.50094 10.1723 1.82811 10.1723H10.1717C10.4989 10.1723 10.7853 9.886 10.7853 9.55882C10.7853 9.23165 10.4989 8.94531 10.1717 8.94531Z" fill="white"/>
<path d="M1.82811 3.05515H10.1717C10.4989 3.05515 10.7853 2.76881 10.7853 2.44164C10.7853 2.11446 10.4989 1.82812 10.1717 1.82812H1.82811C1.50091 1.82812 1.2146 2.11446 1.2146 2.44164C1.2146 2.76881 1.50094 3.05515 1.82811 3.05515Z" fill="white"/>
</svg>
