<svg width="51" height="50" viewBox="0 0 51 50" fill="none" xmlns="http://www.w3.org/2000/svg">
<mask id="mask0_1132_9019" style="mask-type:luminance" maskUnits="userSpaceOnUse" x="0" y="31" width="42" height="19">
<path d="M0.171448 31.7717H41.2522V50H0.171448V31.7717Z" fill="white"/>
</mask>
<g mask="url(#mask0_1132_9019)">
<path d="M30.2747 47.0075C18.1074 47.0075 8.24466 37.1448 8.24466 24.9775C8.24466 12.8102 18.1074 2.94748 30.2747 2.94748C34.2235 2.94748 37.9252 3.99096 41.1296 5.80992C36.7977 2.19049 31.2215 0.0102539 25.1345 0.0102539C11.3457 0.0102539 0.167297 11.1887 0.167297 24.9775C0.167297 38.7663 11.3457 49.9447 25.1345 49.9447C31.2215 49.9447 36.7969 47.7645 41.1296 44.1451C37.9252 45.964 34.2235 47.0075 30.2747 47.0075Z" fill="#467DFF"/>
</g>
<mask id="mask1_1132_9019" style="mask-type:luminance" maskUnits="userSpaceOnUse" x="17" y="31" width="34" height="15">
<path d="M17.163 31.7717H50.0169V45.0875H17.163V31.7717Z" fill="white"/>
</mask>
<g mask="url(#mask1_1132_9019)">
<path d="M25.9461 42.5705C35.6626 42.5705 43.5392 34.6939 43.5392 24.9774C43.5392 15.2609 35.6626 7.38432 25.9461 7.38432C22.7938 7.38432 19.8364 8.21776 17.2781 9.67041C20.737 6.78024 25.1899 5.03857 30.0511 5.03857C41.0632 5.03857 49.99 13.9653 49.99 24.9774C49.99 35.9895 41.0632 44.9162 30.0511 44.9162C25.1899 44.9162 20.737 43.1746 17.2781 40.2844C19.8364 41.7362 22.7938 42.5705 25.9461 42.5705Z" fill="#BFC1FF"/>
</g>
<mask id="mask2_1132_9019" style="mask-type:luminance" maskUnits="userSpaceOnUse" x="0" y="0" width="42" height="20">
<path d="M0.171448 0H41.2522V19.5188H0.171448V0Z" fill="white"/>
</mask>
<g mask="url(#mask2_1132_9019)">
<path d="M30.2747 47.0075C18.1074 47.0075 8.24466 37.1448 8.24466 24.9775C8.24466 12.8102 18.1074 2.94748 30.2747 2.94748C34.2235 2.94748 37.9252 3.99096 41.1296 5.80992C36.7977 2.19049 31.2215 0.0102539 25.1345 0.0102539C11.3457 0.0102539 0.167297 11.1887 0.167297 24.9775C0.167297 38.7663 11.3457 49.9447 25.1345 49.9447C31.2215 49.9447 36.7969 47.7645 41.1296 44.1451C37.9252 45.964 34.2235 47.0075 30.2747 47.0075Z" fill="#467DFF"/>
</g>
<mask id="mask3_1132_9019" style="mask-type:luminance" maskUnits="userSpaceOnUse" x="17" y="4" width="34" height="16">
<path d="M17.163 4.86719H50.0169V19.5189H17.163V4.86719Z" fill="white"/>
</mask>
<g mask="url(#mask3_1132_9019)">
<path d="M25.9461 42.5705C35.6626 42.5705 43.5392 34.6939 43.5392 24.9774C43.5392 15.2609 35.6626 7.38432 25.9461 7.38432C22.7938 7.38432 19.8364 8.21776 17.2781 9.67041C20.737 6.78024 25.1899 5.03857 30.0511 5.03857C41.0632 5.03857 49.99 13.9653 49.99 24.9774C49.99 35.9895 41.0632 44.9162 30.0511 44.9162C25.1899 44.9162 20.737 43.1746 17.2781 40.2844C19.8364 41.7362 22.7938 42.5705 25.9461 42.5705Z" fill="#BFC1FF"/>
</g>
<path d="M5.7333 22.6134C5.89461 22.8175 6.01391 23.0931 6.09289 23.4401C6.1265 23.6039 6.15338 23.7862 6.17354 23.9879C6.19371 24.1895 6.20379 24.4046 6.20379 24.6331V26.3C6.20379 26.5352 6.19371 26.7554 6.17354 26.9587C6.15338 27.1603 6.1265 27.3418 6.09289 27.5031C6.01391 27.8459 5.89461 28.124 5.7333 28.3366C5.55854 28.5567 5.33842 28.7113 5.07461 28.8003C4.80575 28.897 4.48817 28.9448 4.12354 28.9448H2.07017C1.7005 28.9448 1.38627 28.897 1.12918 28.8003C0.864531 28.7113 0.646088 28.5542 0.473854 28.3298C0.3033 28.1106 0.182316 27.835 0.110902 27.5031C0.070574 27.3418 0.0411681 27.1603 0.0235247 26.9587C0.00756145 26.7554 0 26.5352 0 26.3V24.6331C0 24.1517 0.0369673 23.7543 0.110902 23.4401C0.182316 23.109 0.3033 22.8335 0.473854 22.6134C0.646088 22.4008 0.864531 22.2437 1.12918 22.1429C1.39804 22.0488 1.71142 22.0017 2.07017 22.0017H4.12354C4.48817 22.0017 4.80575 22.0488 5.07461 22.1429C5.33842 22.2437 5.55854 22.4008 5.7333 22.6134ZM4.95026 24.492C4.95026 24.3693 4.9469 24.2559 4.94018 24.1525C4.93514 24.0475 4.92422 23.9534 4.90657 23.8702C4.88389 23.7114 4.83684 23.5846 4.76543 23.4905C4.70913 23.4123 4.62428 23.351 4.51001 23.3056C4.45372 23.288 4.39071 23.2737 4.32182 23.262C4.25208 23.251 4.17227 23.2452 4.08321 23.2452H2.11386C2.02396 23.2452 1.94331 23.251 1.87189 23.262C1.80216 23.2737 1.73915 23.288 1.68369 23.3056C1.57111 23.351 1.48709 23.4123 1.43164 23.4905C1.39804 23.5359 1.36947 23.5905 1.34763 23.6552C1.32494 23.7207 1.30478 23.7921 1.28714 23.8702C1.27537 23.9534 1.26529 24.0475 1.25689 24.1525C1.25017 24.2559 1.24681 24.3693 1.24681 24.492V26.4512C1.24681 26.5747 1.25017 26.689 1.25689 26.794C1.26529 26.8974 1.27537 26.9915 1.28714 27.0763C1.30478 27.1486 1.32494 27.2166 1.34763 27.2813C1.36947 27.3468 1.39804 27.4015 1.43164 27.446C1.48709 27.5359 1.57111 27.5972 1.68369 27.6308C1.78451 27.6695 1.92734 27.688 2.11386 27.688H4.08321C4.26637 27.688 4.40919 27.6695 4.51001 27.6308C4.62428 27.5972 4.70913 27.5359 4.76543 27.446C4.83264 27.3611 4.87969 27.2376 4.90657 27.0763C4.92422 26.9915 4.93514 26.8974 4.94018 26.794C4.9469 26.689 4.95026 26.5747 4.95026 26.4512V24.492Z" fill="#467DFF"/>
<path d="M13.9258 22.0017C13.9594 22.0017 14.0065 22.0177 14.067 22.0488C14.1291 22.0782 14.1611 22.1597 14.1611 22.2941V27.856C14.1611 28.266 14.1022 28.5474 13.9863 28.6995C13.867 28.8634 13.6847 28.9448 13.4385 28.9448H12.8235C12.7109 28.9448 12.616 28.9356 12.5379 28.918C12.4975 28.907 12.4572 28.8944 12.4169 28.881C12.3782 28.8659 12.3429 28.8465 12.3093 28.8239C12.2421 28.7861 12.1799 28.7247 12.1245 28.639C12.0976 28.6012 12.0674 28.5575 12.0338 28.508C12.0001 28.4567 11.9665 28.3971 11.9329 28.3298L9.26456 23.598C9.25784 23.5871 9.25112 23.5804 9.2444 23.5779C9.23936 23.5762 9.23768 23.5745 9.23768 23.5745H9.19735C9.19735 23.5745 9.19735 23.5762 9.19735 23.5779C9.19735 23.5804 9.19735 23.5846 9.19735 23.5913V28.6491C9.19735 28.7768 9.1671 28.8591 9.10661 28.8944C9.0478 28.928 8.99991 28.9448 8.9621 28.9448H8.21267C8.17235 28.9448 8.12026 28.928 8.05808 28.8944C7.99759 28.8591 7.96735 28.7768 7.96735 28.6491V23.0872C7.96735 22.6772 8.02616 22.3941 8.14546 22.237C8.26813 22.0807 8.45128 22.0017 8.69325 22.0017H9.32169C9.37967 22.0017 9.43344 22.0034 9.48301 22.0051C9.53426 22.0076 9.57879 22.0118 9.61743 22.0185C9.70649 22.0345 9.78547 22.0681 9.85268 22.1193C9.90813 22.158 9.96778 22.2218 10.0308 22.3109C10.0577 22.3512 10.0862 22.3974 10.1182 22.4487C10.1493 22.4982 10.182 22.5529 10.2156 22.6134L12.8739 27.3452C12.8806 27.3611 12.889 27.3687 12.9008 27.3687H12.9411C12.9411 27.3645 12.9411 27.362 12.9411 27.362C12.9411 27.362 12.9411 27.3586 12.9411 27.3519V22.2941C12.9411 22.1597 12.9697 22.0782 13.0285 22.0488C13.089 22.0177 13.1377 22.0017 13.1764 22.0017H13.9258Z" fill="#467DFF"/>
<path d="M20.9841 27.4291C21.0245 27.4291 21.0749 27.4451 21.1354 27.4762C21.1975 27.5056 21.2295 27.5854 21.2295 27.7148V28.639C21.2295 28.7692 21.1975 28.8499 21.1354 28.881C21.0749 28.9104 21.0245 28.9246 20.9841 28.9246H17.9965C17.8125 28.9246 17.6411 28.9137 17.4823 28.891C17.3252 28.8692 17.1832 28.8331 17.0555 28.7835C16.7799 28.6877 16.5615 28.5331 16.4002 28.3197C16.2296 28.103 16.1086 27.8282 16.0372 27.4964C16.0078 27.3552 15.9835 27.2006 15.9633 27.0326C15.9448 26.8646 15.9331 26.6822 15.9263 26.4848V26.4445L15.9431 25.3825C15.9608 25.322 15.9919 25.2531 16.0372 25.1741C16.1599 24.9549 16.3506 24.8372 16.6085 24.8213L20.9505 24.8112C20.9841 24.8112 21.0312 24.8271 21.0917 24.8582C21.1538 24.8902 21.1858 24.9691 21.1858 25.0968V25.7623C21.1858 25.8925 21.1538 25.974 21.0917 26.0076C21.0312 26.0412 20.9841 26.058 20.9505 26.058H17.1899C17.1899 26.058 17.1874 26.0899 17.1832 26.1521C17.1807 26.2126 17.1782 26.2823 17.1765 26.3605C17.174 26.4394 17.1731 26.51 17.1731 26.5722C17.1731 26.6327 17.1731 26.6629 17.1731 26.6629C17.1773 26.6856 17.1799 26.7091 17.1799 26.7335C17.1799 26.7587 17.1832 26.7822 17.1899 26.8041C17.2118 26.9637 17.2588 27.0897 17.3311 27.1838C17.4 27.2695 17.4857 27.3308 17.5865 27.3687C17.647 27.3871 17.7117 27.4014 17.7814 27.4123C17.8528 27.4241 17.9335 27.4291 18.0234 27.4291H20.9841ZM20.9942 21.9849C21.0278 21.9849 21.0749 22.0017 21.1354 22.0353C21.1975 22.0689 21.2295 22.1495 21.2295 22.2772V22.9427C21.2295 23.0729 21.1975 23.1544 21.1354 23.188C21.0749 23.2216 21.0278 23.2384 20.9942 23.2384L16.1549 23.2283C16.1212 23.2283 16.0742 23.214 16.0137 23.1846C15.9549 23.1535 15.9263 23.0729 15.9263 22.9427V22.2873C15.9263 22.1529 15.9549 22.0689 16.0137 22.0353C16.0742 22.0017 16.1212 21.9849 16.1549 21.9849H20.9942Z" fill="#467DFF"/>
<path d="M28.7335 24.0114V24.0618C28.7335 24.0576 28.7335 24.0542 28.7335 24.0517C28.7335 24.0475 28.7335 24.0433 28.7335 24.0383C28.7335 24.0316 28.7335 24.0274 28.7335 24.0248C28.7335 24.0231 28.7335 24.0181 28.7335 24.0114ZM28.8949 28.5718C28.9285 28.6172 28.9394 28.6844 28.9285 28.7735C28.91 28.8877 28.8453 28.9448 28.7335 28.9448H27.8094C27.7354 28.9448 27.6758 28.9272 27.6313 28.8911C27.6153 28.8802 27.5993 28.8634 27.5842 28.8407C27.5708 28.8188 27.5548 28.7961 27.5372 28.7735L26.0148 26.0748H24.2403V28.6491C24.2403 28.7768 24.2101 28.8591 24.1496 28.8944C24.0908 28.928 24.0429 28.9448 24.0051 28.9448H23.2389C23.1985 28.9448 23.1464 28.928 23.0843 28.8944C23.0238 28.8591 22.9935 28.7768 22.9935 28.6491V25.1137C22.9935 24.986 23.0238 24.907 23.0843 24.8751C23.1464 24.844 23.1985 24.828 23.2389 24.828H26.8986C27.1112 24.828 27.2599 24.7667 27.3456 24.6432C27.4347 24.5205 27.48 24.3189 27.48 24.0383C27.48 23.756 27.4347 23.5535 27.3456 23.43C27.2599 23.3073 27.1112 23.2452 26.8986 23.2452H23.2389C23.1985 23.2452 23.1464 23.2309 23.0843 23.2015C23.0238 23.1704 22.9935 23.0897 22.9935 22.9595V22.2941C22.9935 22.1597 23.0238 22.0782 23.0843 22.0488C23.1464 22.0177 23.1985 22.0017 23.2389 22.0017H27.1171C27.6951 22.0017 28.1101 22.1815 28.3639 22.5394C28.6058 22.8872 28.7285 23.3863 28.7335 24.0383C28.7285 24.6886 28.6058 25.1868 28.3639 25.5338C28.1505 25.8278 27.8363 25.9992 27.4195 26.048L28.8949 28.5718Z" fill="#467DFF"/>
<path d="M40.8661 21.9009C40.9333 21.9009 40.9787 21.916 41.0039 21.9446C41.0307 21.9715 41.0459 21.9983 41.0509 22.0252C41.0686 22.0815 41.0627 22.1487 41.0341 22.2269L39.1589 28.0509C39.0353 28.3601 38.9118 28.5676 38.7892 28.6726C38.7707 28.6844 38.7522 28.6987 38.732 28.7163C38.7136 28.7323 38.69 28.7457 38.6615 28.7566C38.4934 28.8759 38.2994 28.9348 38.0801 28.9348C37.8516 28.9348 37.6432 28.8659 37.455 28.7264C37.2668 28.5852 37.1408 28.4054 37.0786 28.1853C37.0736 28.1702 37.066 28.1509 37.0551 28.1282C37.0433 28.1064 37.0324 28.0837 37.0215 28.061L35.8587 24.1794L34.6152 28.0509C34.5522 28.208 34.4892 28.3366 34.427 28.4374C34.3665 28.5382 34.3061 28.6172 34.2456 28.6726C34.2204 28.6844 34.1994 28.6987 34.1817 28.7163C34.1657 28.7323 34.1447 28.7457 34.1179 28.7566C33.9498 28.8759 33.7557 28.9348 33.5365 28.9348C33.3079 28.9348 33.0996 28.8659 32.9114 28.7264C32.7232 28.5852 32.5972 28.4054 32.535 28.1853C32.5299 28.1702 32.5224 28.1509 32.5115 28.1282C32.4997 28.1064 32.4888 28.0837 32.4778 28.061L30.7337 22.2269C30.7068 22.1597 30.7009 22.0924 30.7169 22.0252C30.7236 22.0034 30.7379 21.9773 30.7605 21.9479C30.7824 21.9168 30.8278 21.9009 30.895 21.9009H31.7956C31.9116 21.9009 31.9922 21.9631 32.0376 22.0857L33.5129 27.1435C33.5129 27.1486 33.5138 27.1528 33.5163 27.157C33.518 27.1595 33.5197 27.1603 33.5197 27.1603L33.5533 27.1502C33.5533 27.1502 33.5533 27.1494 33.5533 27.1469C33.5533 27.1452 33.5566 27.1402 33.5633 27.1334L35.1529 22.0857C35.2017 21.9631 35.284 21.9009 35.3983 21.9009H36.3493C36.4611 21.9009 36.5392 21.9631 36.5846 22.0857L38.0566 27.1435C38.0566 27.1486 38.0574 27.1528 38.0599 27.157C38.0616 27.1595 38.0633 27.1603 38.0633 27.1603L38.0969 27.1502C38.0969 27.1502 38.0969 27.1494 38.0969 27.1469C38.0969 27.1452 38.1002 27.1402 38.107 27.1334L39.6966 22.0857C39.7478 21.9631 39.8293 21.9009 39.9419 21.9009H40.8661Z" fill="#467DFF"/>
<path d="M47.342 22.7846L49.7079 28.6154C49.7415 28.6943 49.7499 28.7616 49.7348 28.817C49.7281 28.8397 49.7121 28.8666 49.6878 28.8977C49.6626 28.9296 49.6172 28.9447 49.55 28.9447H48.6493C48.53 28.9447 48.4485 28.8825 48.404 28.7565L46.317 23.5475C46.3103 23.5366 46.3069 23.5307 46.3069 23.5307H46.2733C46.2733 23.5307 46.2717 23.5332 46.27 23.5374C46.2675 23.5399 46.2633 23.5466 46.2565 23.5576L45.1811 26.2831H46.2229C46.3414 26.2831 46.4229 26.3394 46.4683 26.4511L46.7707 27.2005C46.7993 27.2971 46.7884 27.3786 46.7371 27.4458C46.6917 27.5248 46.6195 27.5635 46.5187 27.5635H44.677L44.1964 28.7666C44.1511 28.8859 44.0729 28.9447 43.9612 28.9447H43.0337C42.9664 28.9447 42.9202 28.9296 42.8959 28.8977C42.8707 28.8666 42.8555 28.8397 42.8488 28.817C42.8329 28.7658 42.8387 28.6985 42.8656 28.6154L45.2147 22.7846C45.3265 22.4872 45.45 22.2822 45.5844 22.1696C45.602 22.1587 45.6222 22.1452 45.6449 22.1293C45.6667 22.1116 45.6894 22.0973 45.7121 22.0856C45.8801 21.9671 46.0725 21.9075 46.2901 21.9075C46.5203 21.9075 46.7279 21.978 46.9119 22.1192C47.0975 22.2587 47.2244 22.4376 47.2916 22.6569C47.3025 22.6754 47.3126 22.6955 47.3219 22.7174C47.3303 22.7401 47.337 22.7628 47.342 22.7846Z" fill="#467DFF"/>
</svg>
