<svg width="110" height="120" viewBox="0 0 110 120" fill="none" xmlns="http://www.w3.org/2000/svg">
<g clip-path="url(#clip0_1232_405)">
<path d="M109.529 57.2812V85.2421L49.6021 119.816V91.8924L109.529 57.2812Z" stroke="white" stroke-width="0.244948" stroke-miterlimit="10" stroke-linecap="round" stroke-linejoin="round"/>
<path d="M109.528 57.2812L92.5903 67.0547V47.5078L109.528 57.2812Z" fill="white"/>
<path d="M109.528 57.2812L92.5903 67.0547V47.5078L109.528 57.2812Z" stroke="white" stroke-width="0.244948" stroke-miterlimit="10" stroke-linecap="round" stroke-linejoin="round"/>
<path d="M92.5906 67.0544L81.8252 73.2638V29.3569L52.7988 12.6025V0.183594L92.5906 23.1475V67.0544Z" stroke="white" stroke-width="0.244948" stroke-miterlimit="10" stroke-linecap="round" stroke-linejoin="round"/>
<path d="M81.825 73.2634L71.0963 79.4728V36.1905L42.0332 19.4361V6.39258L81.825 29.3564V73.2634Z" stroke="white" stroke-width="0.244948" stroke-miterlimit="10" stroke-linecap="round" stroke-linejoin="round"/>
<path d="M71.096 79.4727L60.3305 85.6822V35.5658L31.3042 18.8114V13.2266L71.096 36.1904V79.4727Z" fill="white"/>
<path d="M71.096 79.4727L60.3305 85.6822V35.5658L31.3042 18.8114V13.2266L71.096 36.1904V79.4727Z" stroke="white" stroke-width="0.244948" stroke-miterlimit="10" stroke-linecap="round" stroke-linejoin="round"/>
<path d="M60.3309 85.6818L49.6021 91.8912L20.5391 75.1368V12.6016L60.3309 35.5654V85.6818ZM49.6021 63.1221V43.612L29.2837 31.8912V51.4381L49.6021 63.1221Z" stroke="white" stroke-width="0.244948" stroke-miterlimit="10" stroke-linecap="round" stroke-linejoin="round"/>
<path d="M49.6018 91.8924V119.816L0.183594 91.3046V63.3438L49.6018 91.8924ZM34.8315 99.7185L37.9178 97.9182L13.0801 83.5887L9.99376 85.3891C9.00172 85.9402 9.00172 86.8588 9.99376 87.4466L31.3042 99.7553C32.2595 100.306 33.8394 100.306 34.8315 99.7185Z" stroke="white" stroke-width="0.244948" stroke-miterlimit="10" stroke-linecap="round" stroke-linejoin="round"/>
<path d="M44.4215 60.1473L29.2837 51.4027V31.8926L49.6021 43.6133V63.1234L44.4215 60.1473Z" fill="white"/>
<path d="M44.4215 60.1473L29.2837 51.4027V31.8926L49.6021 43.6133V63.1234L44.4215 60.1473Z" stroke="white" stroke-width="0.244948" stroke-miterlimit="10" stroke-linecap="round" stroke-linejoin="round"/>
<path d="M37.9181 97.9541L34.8318 99.7545C33.8397 100.306 32.2598 100.306 31.3045 99.7545L9.99403 87.4458C9.00199 86.8947 9.00199 85.9761 9.99403 85.3883L13.0804 83.5879L37.9181 97.9541Z" fill="white"/>
<path d="M37.9181 97.9541L34.8318 99.7545C33.8397 100.306 32.2598 100.306 31.3045 99.7545L9.99403 87.4458C9.00199 86.8947 9.00199 85.9761 9.99403 85.3883L13.0804 83.5879L37.9181 97.9541Z" stroke="white" stroke-width="0.244948" stroke-miterlimit="10" stroke-linecap="round" stroke-linejoin="round"/>
<path d="M20.5388 51.623V75.1013L0.183594 63.3438L20.5388 51.623Z" fill="white"/>
<path d="M20.5388 51.623V75.1013L0.183594 63.3438L20.5388 51.623Z" stroke="white" stroke-width="0.244948" stroke-miterlimit="10" stroke-linecap="round" stroke-linejoin="round"/>
</g>
<defs>
<clipPath id="clip0_1232_405">
<rect width="109.712" height="120" fill="white"/>
</clipPath>
</defs>
</svg>
