<svg width="16" height="16" viewBox="0 0 16 16" fill="none" xmlns="http://www.w3.org/2000/svg">
<g opacity="0.6">
<path d="M7.99996 6.66667C9.28863 6.66667 10.3333 5.622 10.3333 4.33333C10.3333 3.04467 9.28863 2 7.99996 2C6.71129 2 5.66663 3.04467 5.66663 4.33333C5.66663 5.622 6.71129 6.66667 7.99996 6.66667Z" stroke="white" stroke-linecap="round" stroke-linejoin="round"/>
<path d="M4 2.41797C3.3955 2.83962 3 3.54014 3 4.33308C3 5.18184 3.4532 5.92478 4.1308 6.33308" stroke="white" stroke-linecap="round" stroke-linejoin="round"/>
<path d="M12 2.41797C12.6045 2.83962 13 3.54014 13 4.33308C13 5.12598 12.6045 5.82654 12 6.24818" stroke="white" stroke-linecap="round" stroke-linejoin="round"/>
<path d="M4 13.334V14.0007H12V13.334C12 12.0915 12 11.4702 11.797 10.9802C11.5264 10.3268 11.0072 9.80762 10.3538 9.53698C9.86377 9.33398 9.2425 9.33398 8 9.33398C6.7575 9.33398 6.13623 9.33398 5.64617 9.53698C4.99277 9.80762 4.47363 10.3268 4.203 10.9802C4 11.4702 4 12.0915 4 13.334Z" stroke="white" stroke-linecap="round" stroke-linejoin="round"/>
<path d="M14.6666 14.001V13.601C14.6666 12.1075 14.6666 11.3608 14.376 10.7904C14.1203 10.2886 13.7123 9.88067 13.2106 9.625" stroke="white" stroke-linecap="round" stroke-linejoin="round"/>
<path d="M1.33337 14.001V13.601C1.33337 12.1075 1.33337 11.3608 1.62402 10.7904C1.87968 10.2886 2.28763 9.88067 2.7894 9.625" stroke="white" stroke-linecap="round" stroke-linejoin="round"/>
</g>
</svg>
