<svg width="32" height="32" viewBox="0 0 32 32" fill="none" xmlns="http://www.w3.org/2000/svg">
<path d="M25.1158 12.5537L24.8244 13.2326C24.6112 13.7295 23.9343 13.7295 23.7209 13.2326L23.4296 12.5537C22.9102 11.3433 21.9747 10.3797 20.8073 9.8525L19.9095 9.44706C19.4241 9.22784 19.4241 8.51057 19.9095 8.29134L20.7571 7.90857C21.9545 7.36781 22.9068 6.36848 23.4172 5.117L23.7164 4.38344C23.925 3.87219 24.6204 3.87219 24.8289 4.38344L25.1281 5.117C25.6387 6.36848 26.591 7.36781 27.7884 7.90857L28.6359 8.29134C29.1214 8.51057 29.1214 9.22784 28.6359 9.44706L27.7382 9.8525C26.5708 10.3797 25.6352 11.3433 25.1158 12.5537ZM4.17213 6.4H17.1818V8.8H5.36364V25.6L16.3454 14.4478C16.8069 13.9791 17.5552 13.9791 18.0168 14.4477L24.2727 20.8125V16H26.6364V26.8079C26.6364 27.4662 26.0983 28 25.4642 28H4.17213C3.52479 28 3 27.4661 3 26.8079V7.59208C3 6.93371 3.53809 6.4 4.17213 6.4ZM10.0909 16C8.78553 16 7.72727 14.9255 7.72727 13.6C7.72727 12.2745 8.78553 11.2 10.0909 11.2C11.3963 11.2 12.4545 12.2745 12.4545 13.6C12.4545 14.9255 11.3963 16 10.0909 16Z" fill="white"/>
</svg>
