<svg width="160" height="160" viewBox="0 0 160 160" fill="none" xmlns="http://www.w3.org/2000/svg">
<g opacity="0.2">
<path d="M69.7274 133.327C72.8701 133.916 76.0127 134.112 79.1553 134.112H79.8428L59.9066 130.577C63.0493 131.755 66.2901 132.639 69.7274 133.327ZM108.716 122.524C97.422 130.479 83.6729 133.523 70.022 131.166C48.3181 127.336 32.2121 110.346 28.1855 89.9189L25.9268 89.5261C29.1676 107.989 42.0328 123.801 59.9066 130.577L79.8428 134.112C90.5474 134.014 100.957 130.675 109.894 124.292C116.474 119.676 121.778 113.783 125.706 107.105L123.447 106.712C119.813 112.9 114.805 118.301 108.716 122.524ZM88.4851 26.8695C74.245 24.4143 60.0048 27.557 48.2199 35.8064C41.9346 40.2258 36.8278 45.8236 32.9977 52.1089L35.2565 52.5017C38.8902 46.7075 43.7024 41.6007 49.4966 37.476C58.3353 31.2889 68.5489 28.048 79.0571 28.048C82.1016 28.048 85.146 28.3426 88.0923 28.8337C109.403 32.5656 125.411 49.0645 129.732 69.0989L131.991 69.4917C127.768 48.4752 110.975 30.896 88.4851 26.8695Z" fill="white"/>
<path opacity="0.5" d="M84.7532 48.1807C76.2091 46.7076 67.6651 48.5735 60.5941 53.5821C59.3174 54.466 58.1389 55.4481 56.9604 56.4302L58.3353 56.6266C59.2192 55.8409 60.2013 55.0553 61.1834 54.3678C66.4866 50.6359 72.6737 48.6718 79.0572 48.6718C80.9231 48.6718 82.6909 48.8682 84.5568 49.1628C92.8063 50.6359 99.9754 55.1535 104.689 62.028C105.377 63.0101 105.966 64.0904 106.555 65.0725L107.93 65.2689C107.243 63.894 106.457 62.6173 105.573 61.3406C100.663 54.3678 93.1991 49.6538 84.7532 48.1807ZM73.6557 110.935C65.4063 109.462 58.2371 104.945 53.5232 98.0703C52.6393 96.6953 51.7554 95.3204 51.068 93.9455L49.7913 93.7491C50.5769 95.5168 51.559 97.1864 52.6393 98.7577C57.5497 105.829 65.0135 110.543 73.5575 112.114C75.4235 112.409 77.2894 112.605 79.1554 112.605C87.8959 112.605 96.1453 108.971 102.136 102.981L100.859 102.784C93.7883 109.364 83.8694 112.703 73.6557 110.935Z" fill="white"/>
<path d="M15.9097 79.9999C21.2129 80.982 24.8466 79.0178 25.6323 74.7949C26.2215 71.6522 24.7484 69.4917 21.1147 68.215L18.4631 67.2329C16.6954 66.5454 15.9097 65.858 16.1061 64.9741C16.3025 63.8938 17.3828 63.4028 18.8559 63.6974C20.4273 63.992 21.4093 65.0723 21.2129 66.2508L26.4179 67.1347C27.0072 63.4028 24.1592 60.2601 19.347 59.3763C14.4366 58.4924 10.9011 60.5548 10.2137 64.4831C9.62441 67.6257 11.1957 69.9827 14.7312 71.2594L17.1864 72.1433C19.2488 72.9289 19.838 73.42 19.7398 74.402C19.5434 75.4823 18.3649 76.0716 16.7936 75.777C14.9276 75.4823 13.8473 74.402 14.0438 73.2236L8.64233 72.2415C7.95488 76.1698 10.7047 79.0178 15.9097 79.9999ZM35.9441 83.5354C41.9348 84.6157 46.4523 81.3748 47.5326 74.9913C48.6129 68.6078 45.4702 63.992 39.5778 63.0099C33.6853 62.0279 29.0695 65.1705 27.9893 71.554C26.8108 77.8393 30.0516 82.4551 35.9441 83.5354ZM36.828 78.8214C34.471 78.4286 33.1943 75.9734 33.8817 72.5361C34.471 69.0988 36.5333 67.2329 38.8903 67.6257C41.2473 68.0185 42.524 70.4737 41.8365 73.911C41.1491 77.3483 39.1849 79.2142 36.828 78.8214ZM62.1656 87.5619L62.9512 82.8479L54.9964 81.473L57.648 66.6436L51.9519 65.6616L48.5147 85.1067L62.1656 87.5619ZM73.3612 89.526C79.2537 90.6063 83.0838 87.6601 84.2623 81.1784C85.3426 75.0895 82.691 71.063 76.7985 70.0809L68.1562 68.5096L64.7189 87.9547L73.3612 89.526ZM73.0666 84.8121L71.2989 84.5174L73.0666 74.1074L74.8344 74.402C77.5842 74.8931 78.8609 76.9554 78.2716 80.1963C77.7806 83.83 75.9146 85.3031 73.0666 84.8121ZM99.3863 94.7311C105.377 95.8113 109.895 92.5705 110.975 86.187C112.055 79.8035 108.912 75.1877 103.02 74.2056C97.0293 73.1253 92.5117 76.3662 91.4315 82.7497C90.253 89.035 93.3956 93.6508 99.3863 94.7311ZM100.172 90.0171C97.815 89.6242 96.5383 87.1691 97.2257 83.7318C97.815 80.2945 99.8773 78.4286 102.234 78.8214C104.591 79.2142 105.868 81.6694 105.181 85.1067C104.493 88.544 102.529 90.4099 100.172 90.0171ZM120.305 98.3647C125.411 99.2486 129.438 97.088 130.224 92.5705L132.482 79.8035L126.786 78.8214L124.626 90.9009C124.233 92.9633 123.054 93.8472 121.188 93.5526C119.322 93.2579 118.537 91.9812 118.93 89.9189L121.09 77.8393L115.394 76.8572L113.135 89.6242C112.252 94.0436 115.198 97.4809 120.305 98.3647ZM142.696 101.802L145.348 86.8744L150.749 87.8565L151.535 83.339L134.937 80.3927L134.152 84.9103L139.553 85.8924L136.902 100.82L142.696 101.802Z" fill="white"/>
<path opacity="0.5" d="M85.9809 41.3061L83.9185 41.8953L84.606 39.9312L83.3293 38.1634H85.4898L86.7665 36.4939L87.3558 38.5563L89.4182 39.2437L87.6504 40.4222V42.5828L85.9809 41.3061ZM100.221 46.8057L98.0604 46.6093L99.5336 45.038L99.0425 42.9756L101.007 43.8595L102.873 42.7792L102.676 44.8416L104.248 46.3147L102.185 46.7075L101.301 48.6717L100.221 46.8057ZM111.318 57.5104L109.453 56.5283L111.417 55.5462L111.711 53.4838L113.184 54.957L115.345 54.6623L114.265 56.5283L115.247 58.4924L113.184 58.0996L111.613 59.5727L111.318 57.5104ZM101.694 112.408L102.676 110.444L103.56 112.408L105.721 112.801L104.149 114.274L104.444 116.337L102.578 115.355L100.614 116.337L101.007 114.176L99.5336 112.703L101.694 112.408ZM87.6504 118.596L89.2217 117.221L89.3199 119.381L91.1859 120.462L89.1235 121.247L88.6325 123.31L87.2576 121.64L85.1952 121.738L86.3737 119.97L85.5881 118.006L87.6504 118.596ZM72.2318 118.89L74.2942 118.301L73.6067 120.265L74.7852 122.033L72.7228 121.935L71.4461 123.702L70.7587 121.64L68.7945 120.953L70.5623 119.774V117.613L72.2318 118.89ZM57.9917 113.391L60.054 113.587L58.6791 115.158L59.072 117.221L57.1078 116.337L55.3401 117.417L55.5365 115.257L53.9652 113.882L56.0275 113.489L56.9114 111.525L57.9917 113.391ZM46.8942 102.686L48.7601 103.668L46.796 104.65L46.5014 106.712L45.0282 105.141L42.8677 105.534L43.948 103.668L42.9659 101.704L45.0282 102.097L46.5996 100.624L46.8942 102.686ZM56.5186 47.7878L55.5365 49.7519L54.6526 47.7878L52.492 47.395L54.0634 45.9218L53.7687 43.8595L55.6347 44.8416L57.5988 43.8595L57.1078 46.02L58.6791 47.4932L56.5186 47.7878ZM70.5623 41.6007L68.8927 42.9756L68.7945 40.815L67.0268 39.6365L69.0891 38.9491L69.5802 36.8867L70.8569 38.5563L73.0175 38.3598L71.839 40.2258L72.6246 42.1899L70.5623 41.6007Z" fill="white"/>
</g>
</svg>
