<svg width="20" height="20" viewBox="0 0 20 20" fill="none" xmlns="http://www.w3.org/2000/svg">
<g clip-path="url(#clip0_1132_8716)">
<path d="M6.66674 7.50008C6.66674 7.27907 6.75453 7.06711 6.91081 6.91083C7.06709 6.75455 7.27905 6.66675 7.50007 6.66675H12.5001C12.7211 6.66675 12.933 6.75455 13.0893 6.91083C13.2456 7.06711 13.3334 7.27907 13.3334 7.50008V12.5001C13.3334 12.7211 13.2456 12.9331 13.0893 13.0893C12.933 13.2456 12.7211 13.3334 12.5001 13.3334C12.2791 13.3334 12.0671 13.2456 11.9108 13.0893C11.7545 12.9331 11.6667 12.7211 11.6667 12.5001V9.51175L8.08924 13.0892C8.01236 13.1688 7.92041 13.2323 7.81874 13.276C7.71707 13.3197 7.60772 13.3427 7.49707 13.3436C7.38642 13.3446 7.27669 13.3235 7.17427 13.2816C7.07186 13.2397 6.97882 13.1778 6.90057 13.0996C6.82233 13.0213 6.76045 12.9283 6.71855 12.8259C6.67665 12.7235 6.65556 12.6137 6.65653 12.5031C6.65749 12.3924 6.68048 12.2831 6.72415 12.1814C6.76782 12.0797 6.83131 11.9878 6.9109 11.9109L10.4884 8.33341H7.50007C7.27905 8.33341 7.06709 8.24562 6.91081 8.08934C6.75453 7.93306 6.66674 7.72109 6.66674 7.50008Z" fill="white"/>
<path d="M0.833374 9.99992C0.833374 4.93742 4.93754 0.833252 10 0.833252C15.0625 0.833252 19.1667 4.93742 19.1667 9.99992C19.1667 15.0624 15.0625 19.1666 10 19.1666C4.93754 19.1666 0.833374 15.0624 0.833374 9.99992ZM10 2.49992C9.01513 2.49992 8.03986 2.69391 7.12992 3.07082C6.21997 3.44773 5.39318 4.00018 4.69674 4.69662C4.0003 5.39306 3.44785 6.21985 3.07094 7.12979C2.69403 8.03974 2.50004 9.01501 2.50004 9.99992C2.50004 10.9848 2.69403 11.9601 3.07094 12.87C3.44785 13.78 4.0003 14.6068 4.69674 15.3032C5.39318 15.9997 6.21997 16.5521 7.12992 16.929C8.03986 17.3059 9.01513 17.4999 10 17.4999C11.9892 17.4999 13.8968 16.7097 15.3033 15.3032C16.7099 13.8967 17.5 11.989 17.5 9.99992C17.5 8.0108 16.7099 6.10314 15.3033 4.69662C13.8968 3.2901 11.9892 2.49992 10 2.49992Z" fill="white"/>
</g>
<defs>
<clipPath id="clip0_1132_8716">
<rect width="20" height="20" fill="white"/>
</clipPath>
</defs>
</svg>
