<svg width="24" height="24" viewBox="0 0 24 24" fill="none" xmlns="http://www.w3.org/2000/svg">
<path d="M15.0298 9.26132C15.1754 8.82472 15.2415 8.61303 15.3606 8.57334C15.4135 8.56011 15.4664 8.56011 15.5194 8.57334C15.6384 8.61303 15.7046 8.82472 15.8501 9.26132C16.4455 11.0739 16.7366 11.9736 17.3055 12.688C17.5701 13.0188 17.8611 13.3098 18.1919 13.5744C18.9064 14.1301 19.806 14.4344 21.6186 15.0298C22.0552 15.1753 22.2669 15.2415 22.3066 15.3606C22.3198 15.4135 22.3198 15.4664 22.3066 15.5193C22.2669 15.6384 22.0552 15.7045 21.6186 15.8501C19.806 16.4454 18.9064 16.7365 18.1919 17.3054C17.8611 17.57 17.5701 17.8611 17.3055 18.1919C16.7498 18.9063 16.4455 19.806 15.8501 21.6185C15.7046 22.0551 15.6384 22.2668 15.5194 22.3065C15.4664 22.3198 15.4135 22.3198 15.3606 22.3065C15.2415 22.2668 15.1754 22.0551 15.0298 21.6185C14.4345 19.806 14.1434 18.9063 13.5745 18.1919C13.3099 17.8611 13.0188 17.57 12.6881 17.3054C11.9736 16.7497 11.0739 16.4454 9.26137 15.8501C8.82476 15.7045 8.61308 15.6384 8.57339 15.5193C8.56016 15.4664 8.56016 15.4135 8.57339 15.3606C8.61308 15.2415 8.82476 15.1753 9.26137 15.0298C11.0739 14.4344 11.9736 14.1434 12.6881 13.5744C13.0188 13.3098 13.3099 13.0188 13.5745 12.688C14.1434 11.9736 14.4345 11.0739 15.0298 9.26132ZM5.99345 5.59649C6.08607 5.30542 6.13899 5.15989 6.21837 5.13343C6.25806 5.1202 6.28452 5.1202 6.32421 5.13343C6.4036 5.15989 6.44329 5.30542 6.54913 5.59649C6.94604 6.80046 7.1445 7.40906 7.51495 7.88536C7.68695 8.11027 7.8854 8.30873 8.11032 8.48073C8.58662 8.85118 9.19522 9.04964 10.3992 9.44655C10.6903 9.53916 10.8358 9.59208 10.8623 9.67147C10.8755 9.71116 10.8755 9.73762 10.8623 9.77731C10.8358 9.85669 10.6903 9.89638 10.3992 10.0022C9.19522 10.3991 8.58662 10.5976 8.11032 10.968C7.8854 11.14 7.68695 11.3385 7.51495 11.5634C7.1445 12.0397 6.94604 12.6483 6.54913 13.8523C6.45652 14.1434 6.4036 14.2889 6.32421 14.3153C6.28452 14.3286 6.25806 14.3286 6.21837 14.3153C6.13899 14.2889 6.0993 14.1434 5.99345 13.8523C5.59654 12.6483 5.39808 12.0397 5.02763 11.5634C4.85564 11.3385 4.65718 11.14 4.43226 10.968C3.95597 10.5976 3.34737 10.3991 2.1434 10.0022C1.85233 9.90961 1.70679 9.85669 1.68033 9.77731C1.6671 9.73762 1.6671 9.71116 1.68033 9.67147C1.70679 9.59208 1.85233 9.55239 2.1434 9.44655C3.34737 9.04964 3.95597 8.85118 4.43226 8.48073C4.65718 8.30873 4.85564 8.11027 5.02763 7.88536C5.39808 7.39583 5.59654 6.80046 5.99345 5.59649ZM12.4102 1.98459C12.4631 1.79936 12.5028 1.71998 12.5425 1.69352C12.569 1.68029 12.5822 1.68029 12.6087 1.69352C12.6616 1.70675 12.688 1.79936 12.741 1.98459C12.9923 2.73872 13.1114 3.10917 13.3496 3.41347C13.4554 3.54578 13.5877 3.67808 13.72 3.78392C14.0243 4.02207 14.3948 4.14115 15.1489 4.39252C15.3341 4.44545 15.4135 4.48514 15.44 4.52483C15.4532 4.55129 15.4532 4.56452 15.44 4.59098C15.4267 4.6439 15.3341 4.67036 15.1489 4.72329C14.3948 4.97466 14.0243 5.09374 13.72 5.33188C13.5877 5.43773 13.4554 5.57003 13.3496 5.70234C13.1114 6.00664 12.9923 6.37709 12.741 7.13122C12.688 7.31645 12.6484 7.39583 12.6087 7.42229C12.5822 7.43552 12.569 7.43552 12.5425 7.42229C12.4896 7.40906 12.4631 7.31645 12.4102 7.13122C12.1588 6.37709 12.0398 6.00664 11.8016 5.70234C11.6958 5.57003 11.5635 5.43773 11.4312 5.33188C11.1269 5.09374 10.7564 4.97466 10.0023 4.72329C9.81705 4.67036 9.73766 4.63067 9.7112 4.59098C9.69797 4.56452 9.69797 4.55129 9.7112 4.52483C9.72443 4.47191 9.81705 4.44545 10.0023 4.39252C10.7564 4.14115 11.1269 4.02207 11.4312 3.78392C11.5635 3.67808 11.6958 3.54578 11.8016 3.41347C12.0265 3.10917 12.1588 2.73872 12.4102 1.98459Z" fill="white"/>
</svg>
