<svg width="18" height="18" viewBox="0 0 18 18" fill="none" xmlns="http://www.w3.org/2000/svg">
<path d="M13.495 18H4.49496C2.01463 18 0 15.9854 0 13.4949V4.49494C0 2.01462 2.01463 0 4.49496 0H13.495C15.9753 0 17.99 2.01462 17.99 4.49494V13.4949C18.0001 15.9854 15.9855 18 13.495 18ZM13.7684 5.71991L12.9787 4.92013C12.756 4.69741 12.4016 4.69741 12.1789 4.92013L7.80544 9.30371L5.81106 7.30934C5.58833 7.08661 5.234 7.08661 5.01128 7.30934L4.22162 8.10911C3.9989 8.32171 3.9989 8.67604 4.2115 8.88864L4.22162 8.89876L6.61084 11.288L7.41062 12.0877C7.62322 12.3003 7.97755 12.3105 8.19015 12.0877L13.7582 6.51968C13.981 6.30709 13.981 5.95276 13.7684 5.74016C13.7785 5.73003 13.7684 5.73003 13.7684 5.71991Z" fill="#01C495"/>
</svg>
