<svg width="1622" height="313" viewBox="0 0 1622 313" fill="none" xmlns="http://www.w3.org/2000/svg">
<path opacity="0.06" d="M149.99 312.16C120.463 312.16 94.52 305.567 72.16 292.38C49.8 279.193 32.17 260.99 19.27 237.77C6.65667 214.263 0.350001 187.173 0.350001 156.5C0.350001 125.827 6.65667 98.88 19.27 75.66C32.17 52.1533 49.8 33.8067 72.16 20.62C94.52 7.43333 120.463 0.839995 149.99 0.839995C179.517 0.839995 205.603 7.43333 228.25 20.62C250.897 33.8067 268.383 52.1533 280.71 75.66C293.323 98.88 299.63 125.827 299.63 156.5C299.63 187.173 293.323 214.263 280.71 237.77C268.383 260.99 250.897 279.193 228.25 292.38C205.603 305.567 179.517 312.16 149.99 312.16ZM149.99 254.11C167.477 254.11 182.383 250.097 194.71 242.07C207.323 234.043 217.07 222.863 223.95 208.53C230.83 193.91 234.27 176.567 234.27 156.5C234.27 136.433 230.83 119.233 223.95 104.9C217.07 90.28 207.323 79.1 194.71 71.36C182.383 63.3333 167.477 59.32 149.99 59.32C133.077 59.32 118.313 63.3333 105.7 71.36C93.0867 79.1 83.34 90.28 76.46 104.9C69.58 119.233 66.14 136.433 66.14 156.5C66.14 176.567 69.58 193.91 76.46 208.53C83.34 222.863 93.0867 234.043 105.7 242.07C118.313 250.097 133.077 254.11 149.99 254.11ZM329.787 307V90.28H386.117L391.277 125.11C397.87 113.07 407.187 103.467 419.227 96.3C431.267 88.8467 445.887 85.12 463.087 85.12C481.147 85.12 496.34 88.99 508.667 96.73C520.994 104.47 530.31 115.65 536.617 130.27C543.21 144.603 546.507 162.233 546.507 183.16V307H482.437V189.18C482.437 173.413 478.997 161.23 472.117 152.63C465.524 143.743 454.917 139.3 440.297 139.3C431.697 139.3 423.814 141.45 416.647 145.75C409.767 149.763 404.32 155.64 400.307 163.38C396.294 171.12 394.287 180.437 394.287 191.33V307H329.787ZM689.657 312.16C667.297 312.16 647.66 307.573 630.747 298.4C613.833 288.94 600.503 275.897 590.757 259.27C581.297 242.357 576.567 223.007 576.567 201.22C576.567 178.86 581.297 158.937 590.757 141.45C600.217 123.963 613.403 110.203 630.317 100.17C647.23 90.1367 666.867 85.12 689.227 85.12C711.013 85.12 730.077 89.85 746.417 99.31C762.757 108.77 775.513 121.67 784.687 138.01C794.147 154.063 798.877 172.697 798.877 193.91C798.877 196.777 798.733 200.073 798.447 203.8C798.447 207.24 798.16 210.823 797.587 214.55H622.577V177.14H733.087C732.513 165.1 728.07 155.497 719.757 148.33C711.73 140.877 701.697 137.15 689.657 137.15C680.483 137.15 672.17 139.3 664.717 143.6C657.263 147.9 651.243 154.35 646.657 162.95C642.357 171.55 640.207 182.443 640.207 195.63V208.53C640.207 218.563 642.07 227.45 645.797 235.19C649.81 242.93 655.4 248.95 662.567 253.25C670.02 257.55 678.763 259.7 688.797 259.7C698.257 259.7 705.997 257.837 712.017 254.11C718.323 250.097 723.197 245.08 726.637 239.06H792.427C788.413 252.82 781.533 265.29 771.787 276.47C762.04 287.363 750.143 296.107 736.097 302.7C722.05 309.007 706.57 312.16 689.657 312.16ZM829.968 307V5.99998H946.928C971.295 5.99998 991.505 10.3 1007.56 18.9C1023.9 27.2133 1035.94 38.3933 1043.68 52.44C1051.7 66.4867 1055.72 82.11 1055.72 99.31C1055.72 115.363 1051.85 130.413 1044.11 144.46C1036.65 158.507 1024.9 169.83 1008.85 178.43C992.795 187.03 972.011 191.33 946.498 191.33H894.468V307H829.968ZM985.198 307L924.568 175.42H993.798L1058.3 307H985.198ZM894.468 144.89H943.058C959.111 144.89 970.865 141.02 978.318 133.28C986.058 125.54 989.928 115.077 989.928 101.89C989.928 88.99 986.058 78.8133 978.318 71.36C970.865 63.62 959.111 59.75 943.058 59.75H894.468V144.89ZM1129.52 307L1065.45 90.28H1129.09L1169.51 264L1157.47 263.57L1203.91 90.28H1274.86L1321.3 263.57L1309.26 264L1349.25 90.28H1412.89L1349.25 307H1282.17L1232.72 129.41H1246.05L1196.17 307H1129.52ZM1491.83 312.16C1473.77 312.16 1458.72 309.293 1446.68 303.56C1434.93 297.827 1426.19 290.087 1420.45 280.34C1415.01 270.307 1412.28 259.27 1412.28 247.23C1412.28 234.33 1415.44 223.007 1421.74 213.26C1428.34 203.227 1438.51 195.343 1452.27 189.61C1466.03 183.59 1483.38 180.58 1504.3 180.58H1556.76C1556.76 170.833 1555.47 162.807 1552.89 156.5C1550.6 150.193 1546.73 145.463 1541.28 142.31C1535.84 139.157 1528.38 137.58 1518.92 137.58C1508.89 137.58 1500.43 139.587 1493.55 143.6C1486.67 147.613 1482.37 153.92 1480.65 162.52H1418.73C1420.17 147.04 1425.18 133.567 1433.78 122.1C1442.67 110.633 1454.42 101.603 1469.04 95.01C1483.66 88.4167 1500.43 85.12 1519.35 85.12C1539.99 85.12 1557.91 88.56 1573.1 95.44C1588.3 102.033 1600.05 111.78 1608.36 124.68C1616.96 137.58 1621.26 153.633 1621.26 172.84V307H1567.51L1559.77 275.61C1556.62 281.057 1552.89 286.073 1548.59 290.66C1544.29 294.96 1539.28 298.83 1533.54 302.27C1527.81 305.423 1521.5 307.86 1514.62 309.58C1507.74 311.3 1500.15 312.16 1491.83 312.16ZM1507.74 263.14C1514.62 263.14 1520.64 261.993 1525.8 259.7C1530.96 257.407 1535.41 254.253 1539.13 250.24C1542.86 246.227 1545.87 241.64 1548.16 236.48C1550.74 231.033 1552.61 225.157 1553.75 218.85V218.42H1512.04C1504.88 218.42 1498.86 219.423 1493.98 221.43C1489.4 223.15 1485.96 225.73 1483.66 229.17C1481.37 232.61 1480.22 236.623 1480.22 241.21C1480.22 246.083 1481.37 250.24 1483.66 253.68C1486.24 256.833 1489.54 259.27 1493.55 260.99C1497.85 262.423 1502.58 263.14 1507.74 263.14Z" fill="url(#paint0_linear_28_77214)"/>
<defs>
<linearGradient id="paint0_linear_28_77214" x1="814" y1="60" x2="814" y2="260" gradientUnits="userSpaceOnUse">
<stop stop-color="#2A4B99"/>
<stop offset="1" stop-color="#121315"/>
</linearGradient>
</defs>
</svg>
