<svg width="12" height="12" viewBox="0 0 12 12" fill="none" xmlns="http://www.w3.org/2000/svg">
<g opacity="0.6">
<path d="M2.5805 1.5H8.42C8.6835 1.5 8.911 1.5 9.098 1.515C9.2955 1.5315 9.4925 1.567 9.6815 1.6635C9.96373 1.80731 10.1932 2.03677 10.337 2.319C10.4335 2.508 10.469 2.705 10.485 2.9025C10.5005 3.09 10.5005 3.3175 10.5005 3.5805V4.3355C10.7457 4.42226 10.9642 4.57132 11.1345 4.76803C11.3047 4.96474 11.4208 5.20234 11.4715 5.4575C11.501 5.604 11.5005 5.7675 11.5005 5.958V6.042C11.5005 6.232 11.5005 6.396 11.4715 6.5425C11.4207 6.79763 11.3045 7.03516 11.1341 7.23178C10.9638 7.42841 10.7453 7.57735 10.5 7.664V8.419C10.5 8.683 10.5 8.91 10.485 9.0975C10.4685 9.295 10.433 9.492 10.3365 9.681C10.1927 9.96323 9.96323 10.1927 9.681 10.3365C9.492 10.433 9.295 10.4685 9.0975 10.4845C8.91 10.5 8.6825 10.5 8.4195 10.5H2.58C2.3165 10.5 2.0895 10.5 1.902 10.485C1.7045 10.4685 1.5075 10.433 1.3185 10.3365C1.03627 10.1927 0.806808 9.96323 0.663 9.681C0.5665 9.492 0.531 9.295 0.515 9.0975C0.5 8.91 0.5 8.6825 0.5 8.419V3.581C0.5 3.3175 0.5 3.0905 0.515 2.903C0.5315 2.7055 0.567 2.5085 0.6635 2.3195C0.807308 2.03727 1.03677 1.80781 1.319 1.664C1.508 1.5675 1.705 1.532 1.9025 1.516C2.09 1.5 2.3175 1.5 2.5805 1.5ZM9.5 7.75H8.708C8.518 7.75 8.354 7.75 8.2075 7.721C7.91654 7.66312 7.64928 7.52026 7.43951 7.31049C7.22974 7.10072 7.08688 6.83346 7.029 6.5425C6.9995 6.396 7 6.2325 7 6.042V6V5.958C7 5.768 7 5.604 7.029 5.4575C7.08688 5.16654 7.22974 4.89928 7.43951 4.68951C7.64928 4.47974 7.91654 4.33688 8.2075 4.279C8.354 4.2495 8.5175 4.25 8.708 4.25H9.5V3.6C9.5 3.3115 9.5 3.1255 9.488 2.984C9.477 2.848 9.458 2.7975 9.4455 2.773C9.39756 2.67892 9.32108 2.60244 9.227 2.5545C9.202 2.542 9.152 2.523 9.016 2.512C8.875 2.5 8.6885 2.5 8.4 2.5H2.6C2.3115 2.5 2.1255 2.5 1.984 2.512C1.848 2.523 1.7975 2.542 1.773 2.5545C1.67892 2.60244 1.60244 2.67892 1.5545 2.773C1.542 2.798 1.523 2.848 1.512 2.984C1.5 3.125 1.5 3.3115 1.5 3.6V8.4C1.5 8.6885 1.5 8.8745 1.512 9.016C1.523 9.152 1.542 9.202 1.5545 9.227C1.60244 9.32108 1.67892 9.39756 1.773 9.4455C1.798 9.458 1.848 9.477 1.984 9.488C2.125 9.5 2.3115 9.5 2.6 9.5H8.4C8.6885 9.5 8.8745 9.5 9.016 9.488C9.152 9.477 9.202 9.458 9.227 9.4455C9.32108 9.39756 9.39756 9.32108 9.4455 9.227C9.458 9.202 9.477 9.152 9.488 9.016C9.5 8.875 9.5 8.6885 9.5 8.4V7.75ZM8.75 5.25C8.4935 5.25 8.4385 5.2525 8.4025 5.26C8.30553 5.27924 8.21644 5.3268 8.14649 5.39666C8.07654 5.46652 8.02887 5.55555 8.0095 5.6525C8.0025 5.6885 8 5.7435 8 6C8 6.2565 8.0025 6.3115 8.01 6.3475C8.02924 6.44447 8.0768 6.53356 8.14666 6.60351C8.21652 6.67346 8.30555 6.72114 8.4025 6.7405C8.4385 6.7475 8.4935 6.75 8.75 6.75H9.75C10.0065 6.75 10.0615 6.7475 10.0975 6.74C10.1945 6.72076 10.2836 6.6732 10.3535 6.60334C10.4235 6.53348 10.4711 6.44445 10.4905 6.3475C10.4975 6.3115 10.5 6.2565 10.5 6C10.5 5.7435 10.4975 5.6885 10.49 5.6525C10.4708 5.55553 10.4232 5.46644 10.3533 5.39649C10.2835 5.32653 10.1944 5.27886 10.0975 5.2595C10.0615 5.2525 10.0065 5.25 9.75 5.25H8.75Z" fill="white"/>
</g>
</svg>
